<svg width="24" height="24" viewBox="0 0 24 24" fill="none" xmlns="http://www.w3.org/2000/svg">
<path d="M2 16.1634C2 16.9657 2.62038 17.6161 3.38566 17.6161H8.35135V21.8665H7.46189C7.20679 21.8665 7 22.0833 7 22.3507V22.5156C7 22.7831 7.20679 22.9999 7.46189 22.9999H16.5381C16.7932 22.9999 17 22.7831 17 22.5156V22.3507C17 22.0833 16.7932 21.8665 16.5381 21.8665H15.6486V17.6161H20.6143C21.3796 17.6161 22 16.9657 22 16.1634V6.31794C22 5.51561 21.3796 4.86519 20.6143 4.86519H15.6486V1.63058C15.6486 1.1046 15.0699 0.810559 14.6761 1.13647L13.6433 1.99137C13.2882 2.28523 13.0811 2.73337 13.0811 3.20762V4.93603H10.9865V3.20762C10.9865 2.73337 10.7793 2.28523 10.4243 1.99137L9.39144 1.13647C8.99768 0.810558 8.41892 1.1046 8.41892 1.63058V4.93603H3.38566C2.62038 4.93603 2 5.58645 2 6.38878V16.1634ZM13.0811 21.8665H10.9865V17.6161H13.0811V21.8665ZM3.35135 6.52409C3.35135 6.39037 3.45475 6.28197 3.58229 6.28197H20.4177C20.5453 6.28197 20.6486 6.39037 20.6486 6.52409V15.8864C20.6486 16.0201 20.5453 16.1285 20.4177 16.1285H3.58229C3.45475 16.1285 3.35135 16.0201 3.35135 15.8864V6.52409Z" fill="white" fill-opacity="0.5"/>
<path d="M19.0009 14.9999C19.2456 14.9999 19.444 14.7835 19.444 14.5165L19.4438 7.931C19.4438 7.66405 19.2455 7.44765 19.0008 7.44765L5.01826 7.44763C4.77356 7.44763 4.5752 7.66403 4.5752 7.93098L4.57532 14.5165C4.57532 14.7835 4.77369 14.9999 5.01839 14.9999L19.0009 14.9999Z" fill="white" fill-opacity="0.5"/>
</svg>
