<svg width="40" height="40" viewBox="0 0 40 40" fill="none" xmlns="http://www.w3.org/2000/svg">
<rect width="40" height="40" rx="20" fill="black" fill-opacity="0.15"/>
<path d="M26.6334 22.5655L25.232 21.1176V17.5498C25.2507 16.225 24.8021 14.9379 23.9693 13.9263C23.1364 12.9147 21.9754 12.2469 20.7007 12.0462C19.9609 11.9461 19.2089 12.0092 18.4947 12.2314C17.7806 12.4536 17.1207 12.8297 16.5593 13.3347C15.9978 13.8396 15.5476 14.4618 15.2387 15.1597C14.9298 15.8576 14.7693 16.6152 14.768 17.3818V21.1176L13.3665 22.5655C13.1905 22.7494 13.0711 22.9825 13.0234 23.2357C12.9756 23.4889 13.0015 23.751 13.0978 23.9891C13.1942 24.2273 13.3568 24.431 13.5652 24.5747C13.7736 24.7185 14.0187 24.7959 14.2697 24.7974H16.8857V25.0694C16.9221 25.8815 17.2703 26.6457 17.854 27.1945C18.4378 27.7433 19.2095 28.0319 20 27.9972C20.7905 28.0319 21.5622 27.7433 22.146 27.1945C22.7297 26.6457 23.0779 25.8815 23.1143 25.0694V24.7974H25.7303C25.9813 24.7959 26.2264 24.7185 26.4348 24.5747C26.6432 24.431 26.8058 24.2273 26.9022 23.9891C26.9985 23.751 27.0244 23.4889 26.9766 23.2357C26.9289 22.9825 26.8095 22.7494 26.6334 22.5655ZM21.5571 25.0694C21.514 25.4541 21.328 25.807 21.0379 26.0543C20.7478 26.3017 20.376 26.4246 20 26.3973C19.624 26.4246 19.2522 26.3017 18.9621 26.0543C18.672 25.807 18.486 25.4541 18.4429 25.0694V24.7974H21.5571V25.0694Z" fill="white" fill-opacity="0.5"/>
</svg>
