<svg width="24" height="24" viewBox="0 0 24 24" fill="none" xmlns="http://www.w3.org/2000/svg">
<path d="M8.91448 10.9199C8.91448 11.5164 8.39641 11.9999 7.75734 11.9999C7.11827 11.9999 6.6002 11.5164 6.6002 10.9199C6.6002 10.3235 7.11827 9.83993 7.75734 9.83993C8.39641 9.83993 8.91448 10.3235 8.91448 10.9199Z" fill="white"/>
<path fill-rule="evenodd" clip-rule="evenodd" d="M3.60705 4.79993H20.3933C21.0317 4.79993 21.6439 5.0366 22.0952 5.45788C22.5466 5.87916 22.8002 6.45054 22.8002 7.04633V16.9535C22.8002 17.5493 22.5466 18.1207 22.0952 18.542C21.6439 18.9633 21.0317 19.1999 20.3933 19.1999H3.60705C2.96871 19.1999 2.35652 18.9633 1.90515 18.542C1.45377 18.1207 1.2002 17.5493 1.2002 16.9535V7.04633C1.2002 6.45054 1.45377 5.87916 1.90515 5.45788C2.35652 5.0366 2.96871 4.79993 3.60705 4.79993ZM9.91186 15.749C10.0565 15.8841 10.2527 15.9599 10.4573 15.9599C10.6619 15.9599 10.8581 15.8841 11.0028 15.749C11.1475 15.614 11.2288 15.4309 11.2288 15.2399C11.2275 14.7216 11.0931 14.2111 10.8367 13.7513C10.5803 13.2915 10.2095 12.8959 9.75534 12.5975C10.2053 12.1396 10.4557 11.5413 10.4573 10.9199C10.4573 10.2516 10.1729 9.61061 9.66653 9.13802C9.16018 8.66543 8.47342 8.39993 7.75734 8.39993C7.04125 8.39993 6.3545 8.66543 5.84815 9.13802C5.3418 9.61061 5.05734 10.2516 5.05734 10.9199C5.059 11.5413 5.30937 12.1396 5.75934 12.5975C5.30519 12.8959 4.93435 13.2915 4.67797 13.7513C4.42159 14.2111 4.28714 14.7216 4.28591 15.2399C4.28591 15.4309 4.36718 15.614 4.51186 15.749C4.65653 15.8841 4.85274 15.9599 5.05734 15.9599C5.26193 15.9599 5.45815 15.8841 5.60282 15.749C5.74749 15.614 5.82877 15.4309 5.82877 15.2399C5.82877 14.7625 6.03196 14.3047 6.39363 13.9671C6.75531 13.6296 7.24585 13.4399 7.75734 13.4399C8.26883 13.4399 8.75937 13.6296 9.12104 13.9671C9.48272 14.3047 9.68591 14.7625 9.68591 15.2399C9.68591 15.4309 9.76719 15.614 9.91186 15.749ZM13.5431 15.5999H18.9431C19.1476 15.5999 19.3439 15.5241 19.4885 15.389C19.6332 15.254 19.7145 15.0709 19.7145 14.8799C19.7145 14.689 19.6332 14.5058 19.4885 14.3708C19.3439 14.2358 19.1476 14.1599 18.9431 14.1599H13.5431C13.3385 14.1599 13.1422 14.2358 12.9976 14.3708C12.8529 14.5058 12.7716 14.689 12.7716 14.8799C12.7716 15.0709 12.8529 15.254 12.9976 15.389C13.1422 15.5241 13.3385 15.5999 13.5431 15.5999ZM13.5431 12.7199H18.9431C19.1476 12.7199 19.3439 12.6441 19.4885 12.509C19.6332 12.374 19.7145 12.1909 19.7145 11.9999C19.7145 11.809 19.6332 11.6258 19.4885 11.4908C19.3439 11.3558 19.1476 11.2799 18.9431 11.2799H13.5431C13.3385 11.2799 13.1422 11.3558 12.9976 11.4908C12.8529 11.6258 12.7716 11.809 12.7716 11.9999C12.7716 12.1909 12.8529 12.374 12.9976 12.509C13.1422 12.6441 13.3385 12.7199 13.5431 12.7199ZM13.5431 9.83993H18.9431C19.1476 9.83993 19.3439 9.76407 19.4885 9.62904C19.6332 9.49402 19.7145 9.31088 19.7145 9.11993C19.7145 8.92897 19.6332 8.74584 19.4885 8.61081C19.3439 8.47578 19.1476 8.39993 18.9431 8.39993H13.5431C13.3385 8.39993 13.1422 8.47578 12.9976 8.61081C12.8529 8.74584 12.7716 8.92897 12.7716 9.11993C12.7716 9.31088 12.8529 9.49402 12.9976 9.62904C13.1422 9.76407 13.3385 9.83993 13.5431 9.83993Z" fill="white"/>
</svg>
