<svg width="24" height="24" viewBox="0 0 24 24" fill="none" xmlns="http://www.w3.org/2000/svg">
<path d="M19 2.90002H18V1.90002C18 1.30002 17.6 0.900024 17 0.900024C16.4 0.900024 16 1.30002 16 1.90002V2.90002H8V1.90002C8 1.30002 7.6 0.900024 7 0.900024C6.4 0.900024 6 1.30002 6 1.90002V2.90002H5C3.3 2.90002 2 4.20002 2 5.90002V19.9C2 21.6 3.3 22.9 5 22.9H19C20.7 22.9 22 21.6 22 19.9V5.90002C22 4.30002 20.7 2.90002 19 2.90002ZM7 18.9C6.4 18.9 6 18.5 6 17.9C6 17.3 6.4 16.9 7 16.9C7.6 16.9 8 17.3 8 17.9C8 18.5 7.6 18.9 7 18.9ZM7 14.9C6.4 14.9 6 14.5 6 13.9C6 13.3 6.4 12.9 7 12.9C7.6 12.9 8 13.3 8 13.9C8 14.5 7.6 14.9 7 14.9ZM12 18.9C11.4 18.9 11 18.5 11 17.9C11 17.3 11.4 16.9 12 16.9C12.6 16.9 13 17.3 13 17.9C13 18.5 12.6 18.9 12 18.9ZM12 14.9C11.4 14.9 11 14.5 11 13.9C11 13.3 11.4 12.9 12 12.9C12.6 12.9 13 13.3 13 13.9C13 14.5 12.6 14.9 12 14.9ZM17 18.9C16.4 18.9 16 18.5 16 17.9C16 17.3 16.4 16.9 17 16.9C17.6 16.9 18 17.3 18 17.9C18 18.5 17.6 18.9 17 18.9ZM17 14.9C16.4 14.9 16 14.5 16 13.9C16 13.3 16.4 12.9 17 12.9C17.6 12.9 18 13.3 18 13.9C18 14.5 17.6 14.9 17 14.9ZM20 8.90002H4V5.90002C4 5.30002 4.4 4.90002 5 4.90002H6V5.90002C6 6.50002 6.4 6.90002 7 6.90002C7.6 6.90002 8 6.50002 8 5.90002V4.90002H16V5.90002C16 6.50002 16.4 6.90002 17 6.90002C17.6 6.90002 18 6.50002 18 5.90002V4.90002H19C19.6 4.90002 20 5.30002 20 5.90002V8.90002Z" fill="white" fill-opacity="0.5"/>
</svg>
