<svg width="40" height="40" viewBox="0 0 40 40" fill="none" xmlns="http://www.w3.org/2000/svg">
<g filter="url(#filter0_b_50_2601)">
<rect width="40" height="40" rx="20" transform="matrix(-1 0 0 1 40 0)" fill="black" fill-opacity="0.35"/>
<path d="M25.8334 12.4167H25.0001V11.5833C25.0001 11.0833 24.6667 10.75 24.1667 10.75C23.6667 10.75 23.3334 11.0833 23.3334 11.5833V12.4167H16.6667V11.5833C16.6667 11.0833 16.3334 10.75 15.8334 10.75C15.3334 10.75 15.0001 11.0833 15.0001 11.5833V12.4167H14.1667C12.7501 12.4167 11.6667 13.5 11.6667 14.9167V26.5833C11.6667 28 12.7501 29.0833 14.1667 29.0833H25.8334C27.2501 29.0833 28.3334 28 28.3334 26.5833V14.9167C28.3334 13.5833 27.2501 12.4167 25.8334 12.4167ZM15.8334 25.75C15.3334 25.75 15.0001 25.4167 15.0001 24.9167C15.0001 24.4167 15.3334 24.0833 15.8334 24.0833C16.3334 24.0833 16.6667 24.4167 16.6667 24.9167C16.6667 25.4167 16.3334 25.75 15.8334 25.75ZM15.8334 22.4167C15.3334 22.4167 15.0001 22.0833 15.0001 21.5833C15.0001 21.0833 15.3334 20.75 15.8334 20.75C16.3334 20.75 16.6667 21.0833 16.6667 21.5833C16.6667 22.0833 16.3334 22.4167 15.8334 22.4167ZM20.0001 25.75C19.5001 25.75 19.1667 25.4167 19.1667 24.9167C19.1667 24.4167 19.5001 24.0833 20.0001 24.0833C20.5001 24.0833 20.8334 24.4167 20.8334 24.9167C20.8334 25.4167 20.5001 25.75 20.0001 25.75ZM20.0001 22.4167C19.5001 22.4167 19.1667 22.0833 19.1667 21.5833C19.1667 21.0833 19.5001 20.75 20.0001 20.75C20.5001 20.75 20.8334 21.0833 20.8334 21.5833C20.8334 22.0833 20.5001 22.4167 20.0001 22.4167ZM24.1667 25.75C23.6667 25.75 23.3334 25.4167 23.3334 24.9167C23.3334 24.4167 23.6667 24.0833 24.1667 24.0833C24.6667 24.0833 25.0001 24.4167 25.0001 24.9167C25.0001 25.4167 24.6667 25.75 24.1667 25.75ZM24.1667 22.4167C23.6667 22.4167 23.3334 22.0833 23.3334 21.5833C23.3334 21.0833 23.6667 20.75 24.1667 20.75C24.6667 20.75 25.0001 21.0833 25.0001 21.5833C25.0001 22.0833 24.6667 22.4167 24.1667 22.4167ZM26.6667 17.4167H13.3334V14.9167C13.3334 14.4167 13.6667 14.0833 14.1667 14.0833H15.0001V14.9167C15.0001 15.4167 15.3334 15.75 15.8334 15.75C16.3334 15.75 16.6667 15.4167 16.6667 14.9167V14.0833H23.3334V14.9167C23.3334 15.4167 23.6667 15.75 24.1667 15.75C24.6667 15.75 25.0001 15.4167 25.0001 14.9167V14.0833H25.8334C26.3334 14.0833 26.6667 14.4167 26.6667 14.9167V17.4167Z" fill="white" fill-opacity="0.5"/>
</g>
<defs>
<filter id="filter0_b_50_2601" x="-20" y="-20" width="80" height="80" filterUnits="userSpaceOnUse" color-interpolation-filters="sRGB">
<feFlood flood-opacity="0" result="BackgroundImageFix"/>
<feGaussianBlur in="BackgroundImageFix" stdDeviation="10"/>
<feComposite in2="SourceAlpha" operator="in" result="effect1_backgroundBlur_50_2601"/>
<feBlend mode="normal" in="SourceGraphic" in2="effect1_backgroundBlur_50_2601" result="shape"/>
</filter>
</defs>
</svg>
