<svg width="24" height="25" viewBox="0 0 24 25" fill="none" xmlns="http://www.w3.org/2000/svg">
<path d="M20.4615 4H3.53846C2.86546 4.00077 2.22024 4.26968 1.74435 4.74773C1.26846 5.22578 1.00077 5.87394 1 6.55V18.45C1.00077 19.1261 1.26846 19.7742 1.74435 20.2523C2.22024 20.7303 2.86546 20.9992 3.53846 21H20.4615C21.1345 20.9992 21.7798 20.7303 22.2557 20.2523C22.7315 19.7742 22.9992 19.1261 23 18.45V6.55C22.9992 5.87394 22.7315 5.22578 22.2557 4.74773C21.7798 4.26968 21.1345 4.00077 20.4615 4ZM14.4877 12.1608C14.3704 12.7366 14.0587 13.2539 13.6054 13.6255C13.1522 13.997 12.5851 14.2 12 14.2C11.415 14.2 10.8479 13.9971 10.3946 13.6256C9.94133 13.254 9.62964 12.7367 9.51226 12.1609C9.43373 11.7773 9.22607 11.4326 8.92421 11.1847C8.62235 10.9368 8.24472 10.801 7.85486 10.8H2.69231V9.1H21.3077V10.8H16.1451C15.7553 10.801 15.3777 10.9368 15.0758 11.1847C14.774 11.4325 14.5663 11.7772 14.4877 12.1608ZM3.53846 5.7H20.4615C20.6859 5.70026 20.9009 5.78989 21.0596 5.94924C21.2182 6.10859 21.3074 6.32465 21.3077 6.55V7.4H2.69231V6.55C2.69256 6.32465 2.78179 6.10859 2.94042 5.94924C3.09905 5.78989 3.31413 5.70026 3.53846 5.7Z" fill="white" fill-opacity="0.5"/>
</svg>
