<svg width="24" height="24" viewBox="0 0 24 24" fill="none" xmlns="http://www.w3.org/2000/svg">
<path d="M21 6.88501V12.75C21 13.7446 20.6049 14.6984 19.9017 15.4017C19.1984 16.1049 18.2446 16.5 17.25 16.5H7.5V17.25C7.50178 17.8462 7.7394 18.4175 8.16098 18.839C8.58255 19.2606 9.15381 19.4982 9.75 19.5H18.3975C18.5148 19.5015 18.6302 19.5297 18.735 19.5825L21.4125 20.9175C21.5173 20.9703 21.6327 20.9985 21.75 21C21.8903 20.9999 22.0279 20.961 22.1475 20.8875C22.2556 20.82 22.3447 20.726 22.4063 20.6144C22.468 20.5029 22.5003 20.3775 22.5 20.25V9.00001C22.4987 8.5358 22.3538 8.08336 22.0853 7.70471C21.8168 7.32606 21.4377 7.03974 21 6.88501Z" fill="white" fill-opacity="0.5"/>
<path d="M19.5 12.75V3.75C19.5 3.15326 19.2629 2.58097 18.841 2.15901C18.419 1.73705 17.8467 1.5 17.25 1.5H3.75C3.15326 1.5 2.58097 1.73705 2.15901 2.15901C1.73705 2.58097 1.5 3.15326 1.5 3.75V17.25C1.49995 17.3913 1.53982 17.5298 1.61504 17.6494C1.69025 17.7691 1.79774 17.865 1.92511 17.9263C2.05249 17.9875 2.19457 18.0115 2.33498 17.9954C2.4754 17.9794 2.60843 17.9241 2.71875 17.8357L6.05775 15.1642C6.19041 15.0582 6.35514 15.0003 6.525 15H17.25C17.8467 15 18.419 14.7629 18.841 14.341C19.2629 13.919 19.5 13.3467 19.5 12.75ZM15 10.5H6C5.80109 10.5 5.61032 10.421 5.46967 10.2803C5.32902 10.1397 5.25 9.94891 5.25 9.75C5.25 9.55109 5.32902 9.36032 5.46967 9.21967C5.61032 9.07902 5.80109 9 6 9H15C15.1989 9 15.3897 9.07902 15.5303 9.21967C15.671 9.36032 15.75 9.55109 15.75 9.75C15.75 9.94891 15.671 10.1397 15.5303 10.2803C15.3897 10.421 15.1989 10.5 15 10.5ZM15 7.5H6C5.80109 7.5 5.61032 7.42098 5.46967 7.28033C5.32902 7.13968 5.25 6.94891 5.25 6.75C5.25 6.55109 5.32902 6.36032 5.46967 6.21967C5.61032 6.07902 5.80109 6 6 6H15C15.1989 6 15.3897 6.07902 15.5303 6.21967C15.671 6.36032 15.75 6.55109 15.75 6.75C15.75 6.94891 15.671 7.13968 15.5303 7.28033C15.3897 7.42098 15.1989 7.5 15 7.5Z" fill="white" fill-opacity="0.5"/>
</svg>
