<svg width="12" height="9" viewBox="0 0 12 9" fill="none" xmlns="http://www.w3.org/2000/svg">
<path d="M11.1895 1.7902C11.1895 1.96878 11.127 2.12056 11.002 2.24556L6.15381 7.09378L5.24309 8.00449C5.11809 8.12949 4.96631 8.19199 4.78774 8.19199C4.60917 8.19199 4.45738 8.12949 4.33238 8.00449L3.42167 7.09378L0.997559 4.66967C0.872559 4.54467 0.810059 4.39288 0.810059 4.21431C0.810059 4.03574 0.872559 3.88395 0.997559 3.75895L1.90827 2.84824C2.03327 2.72324 2.18506 2.66074 2.36363 2.66074C2.5422 2.66074 2.69399 2.72324 2.81899 2.84824L4.78774 4.82369L9.18059 0.424133C9.30559 0.299133 9.45738 0.236633 9.63595 0.236633C9.81452 0.236633 9.96631 0.299133 10.0913 0.424133L11.002 1.33485C11.127 1.45985 11.1895 1.61163 11.1895 1.7902Z" fill="white"/>
</svg>
