<svg width="16" height="16" viewBox="0 0 16 16" fill="none" xmlns="http://www.w3.org/2000/svg">
<path d="M8 2C4.42044 2 1.34756 4.46943 0 8C1.34756 11.5306 4.42044 14 8 14C11.5796 14 14.6524 11.5306 16 8C14.6524 4.46943 11.5796 2 8 2ZM8 10.5714C7.47258 10.5714 6.95701 10.4206 6.51848 10.1381C6.07995 9.85551 5.73815 9.45391 5.53632 8.98404C5.33449 8.51418 5.28168 7.99715 5.38457 7.49834C5.48747 6.99953 5.74144 6.54135 6.11438 6.18173C6.48732 5.8221 6.96248 5.5772 7.47976 5.47798C7.99704 5.37876 8.53322 5.42968 9.02049 5.62431C9.50776 5.81893 9.92424 6.14852 10.2173 6.57139C10.5103 6.99426 10.6667 7.49142 10.6667 8C10.6667 8.68199 10.3857 9.33604 9.88562 9.81827C9.38552 10.3005 8.70724 10.5714 8 10.5714Z" fill="#20292A"/>
</svg>
