<svg width="40" height="40" viewBox="0 0 40 40" fill="none" xmlns="http://www.w3.org/2000/svg">
<rect width="40" height="40" rx="20" transform="matrix(-1 0 0 1 40 0)" fill="black" fill-opacity="0.15"/>
<path d="M27.5 15.7375V20.625C27.5 21.4538 27.1708 22.2486 26.5847 22.8347C25.9987 23.4207 25.2038 23.75 24.375 23.75H16.25V24.375C16.2515 24.8718 16.4495 25.3479 16.8008 25.6992C17.1521 26.0505 17.6282 26.2485 18.125 26.25H25.3313C25.429 26.2513 25.5252 26.2748 25.6125 26.3187L27.8438 27.4312C27.9311 27.4752 28.0272 27.4987 28.125 27.5C28.242 27.4999 28.3566 27.4675 28.4563 27.4062C28.5463 27.3499 28.6206 27.2716 28.672 27.1787C28.7234 27.0857 28.7502 26.9812 28.75 26.875V17.5C28.7489 17.1131 28.6282 16.7361 28.4044 16.4206C28.1806 16.105 27.8647 15.8664 27.5 15.7375Z" fill="white" fill-opacity="0.5"/>
<path d="M26.25 20.625V13.125C26.25 12.6277 26.0525 12.1508 25.7008 11.7992C25.3492 11.4475 24.8723 11.25 24.375 11.25H13.125C12.6277 11.25 12.1508 11.4475 11.7992 11.7992C11.4475 12.1508 11.25 12.6277 11.25 13.125V24.375C11.25 24.4928 11.2832 24.6082 11.3459 24.7079C11.4085 24.8076 11.4981 24.8875 11.6043 24.9386C11.7104 24.9896 11.8288 25.0096 11.9458 24.9962C12.0628 24.9829 12.1737 24.9367 12.2656 24.8631L15.0481 22.6369C15.1587 22.5485 15.296 22.5002 15.4375 22.5H24.375C24.8723 22.5 25.3492 22.3025 25.7008 21.9508C26.0525 21.5992 26.25 21.1223 26.25 20.625ZM22.5 18.75H15C14.8342 18.75 14.6753 18.6842 14.5581 18.5669C14.4408 18.4497 14.375 18.2908 14.375 18.125C14.375 17.9592 14.4408 17.8003 14.5581 17.6831C14.6753 17.5658 14.8342 17.5 15 17.5H22.5C22.6658 17.5 22.8247 17.5658 22.9419 17.6831C23.0592 17.8003 23.125 17.9592 23.125 18.125C23.125 18.2908 23.0592 18.4497 22.9419 18.5669C22.8247 18.6842 22.6658 18.75 22.5 18.75ZM22.5 16.25H15C14.8342 16.25 14.6753 16.1842 14.5581 16.0669C14.4408 15.9497 14.375 15.7908 14.375 15.625C14.375 15.4592 14.4408 15.3003 14.5581 15.1831C14.6753 15.0658 14.8342 15 15 15H22.5C22.6658 15 22.8247 15.0658 22.9419 15.1831C23.0592 15.3003 23.125 15.4592 23.125 15.625C23.125 15.7908 23.0592 15.9497 22.9419 16.0669C22.8247 16.1842 22.6658 16.25 22.5 16.25Z" fill="white" fill-opacity="0.5"/>
</svg>
