<svg width="20" height="20" viewBox="0 0 20 20" fill="none" xmlns="http://www.w3.org/2000/svg">
<path d="M18.5714 10C18.5714 11.1607 18.3445 12.2694 17.8906 13.3259C17.4368 14.3825 16.8267 15.2939 16.0603 16.0603C15.2939 16.8267 14.3825 17.4368 13.3259 17.8906C12.2694 18.3445 11.1607 18.5714 10 18.5714C8.72025 18.5714 7.50374 18.3017 6.35046 17.7623C5.19719 17.2229 4.21505 16.4621 3.40404 15.4799C3.35195 15.4055 3.32777 15.3218 3.33149 15.2288C3.33521 15.1358 3.36683 15.0595 3.42636 15L4.95537 13.4598C5.02978 13.3929 5.12279 13.3594 5.23439 13.3594C5.35344 13.3743 5.43901 13.4189 5.49109 13.4933C6.03424 14.2002 6.70017 14.747 7.48886 15.1339C8.27755 15.5209 9.1146 15.7143 10 15.7143C10.7738 15.7143 11.5123 15.5636 12.2154 15.2623C12.9185 14.961 13.5268 14.5536 14.0402 14.0402C14.5536 13.5268 14.961 12.9185 15.2623 12.2154C15.5636 11.5123 15.7143 10.7738 15.7143 10C15.7143 9.22621 15.5636 8.48774 15.2623 7.78462C14.961 7.08149 14.5536 6.47323 14.0402 5.95984C13.5268 5.44645 12.9185 5.03908 12.2154 4.73774C11.5123 4.4364 10.7738 4.28573 10 4.28573C9.27085 4.28573 8.57145 4.4178 7.9018 4.68194C7.23216 4.94607 6.63692 5.32368 6.11609 5.81475L7.64511 7.35493C7.87576 7.57814 7.92784 7.83484 7.80136 8.12502C7.67487 8.42264 7.45537 8.57145 7.14287 8.57145H2.14287C1.94942 8.57145 1.78201 8.50076 1.64064 8.35939C1.49927 8.21802 1.42859 8.05061 1.42859 7.85716V2.85716C1.42859 2.54466 1.5774 2.32517 1.87502 2.19868C2.1652 2.07219 2.42189 2.12427 2.64511 2.35493L4.096 3.79466C4.89213 3.04317 5.80173 2.46095 6.82479 2.04801C7.84786 1.63506 8.90627 1.42859 10 1.42859C11.1607 1.42859 12.2694 1.65552 13.3259 2.10939C14.3825 2.56326 15.2939 3.17338 16.0603 3.93975C16.8267 4.70612 17.4368 5.61758 17.8906 6.67412C18.3445 7.73067 18.5714 8.8393 18.5714 10ZM11.4286 6.78573V11.7857C11.4286 11.8899 11.3951 11.9755 11.3281 12.0424C11.2612 12.1094 11.1756 12.1429 11.0714 12.1429H7.50002C7.39585 12.1429 7.31029 12.1094 7.24332 12.0424C7.17636 11.9755 7.14287 11.8899 7.14287 11.7857V11.0714C7.14287 10.9673 7.17636 10.8817 7.24332 10.8147C7.31029 10.7478 7.39585 10.7143 7.50002 10.7143H10V6.78573C10 6.68156 10.0335 6.596 10.1005 6.52904C10.1674 6.46207 10.253 6.42859 10.3572 6.42859H11.0714C11.1756 6.42859 11.2612 6.46207 11.3281 6.52904C11.3951 6.596 11.4286 6.68156 11.4286 6.78573Z" fill="white" fill-opacity="0.5"/>
</svg>
