<svg width="20" height="20" viewBox="0 0 20 20" fill="none" xmlns="http://www.w3.org/2000/svg">
<path d="M10 1C5.03579 1 1 5.03579 1 10C1 14.9642 5.03579 19 10 19C14.9642 19 19 14.9642 19 10C19 5.03579 14.9642 1 10 1ZM11.44 15.7032C11.44 15.9874 11.2126 16.2337 10.9095 16.2337H9.09053C8.80632 16.2337 8.56 16.0063 8.56 15.7032V8.90105C8.56 8.61684 8.78737 8.37053 9.09053 8.37053H10.9095C11.1937 8.37053 11.44 8.5979 11.44 8.90105V15.7032ZM10 7.29053C9.03368 7.29053 8.2379 6.49474 8.2379 5.52842C8.2379 4.56211 9.03368 3.76632 10 3.76632C10.9663 3.76632 11.7621 4.56211 11.7621 5.52842C11.7621 6.49474 10.9663 7.29053 10 7.29053Z" fill="white" fill-opacity="0.5"/>
</svg>
