<svg width="20" height="20" viewBox="0 0 20 20" fill="none" xmlns="http://www.w3.org/2000/svg">
<path d="M4.41465 15.8395H5.50197C5.74949 15.8395 5.94397 15.6384 5.94397 15.3826V14.0121C5.94397 13.7562 5.74949 13.5552 5.50197 13.5552C5.25445 13.5552 5.05997 13.7562 5.05997 14.0121V14.9258H4.41465C4.16714 14.9258 3.97266 15.1268 3.97266 15.3826C3.97266 15.6384 4.16714 15.8395 4.41465 15.8395Z" fill="white" fill-opacity="0.5"/>
<path fill-rule="evenodd" clip-rule="evenodd" d="M7.19756 1H14.906C16.6121 1 18 2.43451 18 4.19795V14.4131C18 16.1765 16.6121 17.6111 14.906 17.6111H8.24067C7.58652 18.4882 6.56992 19.009 5.50028 18.9999C4.10357 18.9999 2.84829 18.1501 2.29138 16.8253C1.5223 14.9887 2.32674 12.8598 4.10357 12.0649V4.19795C4.10357 2.43451 5.49144 1 7.19756 1ZM5.50028 18.0862C6.3666 18.0862 7.17988 17.6385 7.66608 16.8984C7.9578 16.4507 8.11691 15.9207 8.11691 15.3816C8.11691 13.8923 6.9412 12.6771 5.50028 12.6771C5.22624 12.6771 4.95221 12.7228 4.69585 12.8141C3.61737 13.1705 2.88365 14.2121 2.88365 15.3908C2.88365 16.8801 4.05937 18.0862 5.50028 18.0862ZM9.55783 13.5451H14.6497C15.0121 13.5451 15.3126 13.2253 15.3126 12.8507C15.3126 12.4761 15.0121 12.1745 14.6497 12.1745H9.55783C9.19539 12.1745 8.89483 12.4669 8.89483 12.8507C8.89483 13.2344 9.19539 13.5451 9.55783 13.5451ZM7.45392 10.0365H14.6497C15.0121 10.0365 15.3126 9.72583 15.3126 9.35121C15.3126 8.9766 15.0121 8.66594 14.6497 8.66594H7.45392C7.09148 8.66594 6.79092 8.96746 6.79092 9.35121C6.79092 9.73497 7.09148 10.0365 7.45392 10.0365ZM7.45392 6.53702H14.6497C15.0121 6.53702 15.3126 6.22636 15.3126 5.85174C15.3126 5.47713 15.0121 5.16647 14.6497 5.16647H7.45392C7.09148 5.16647 6.79092 5.47713 6.79092 5.85174C6.79092 6.22636 7.09148 6.53702 7.45392 6.53702Z" fill="white" fill-opacity="0.5"/>
</svg>
