<svg width="14" height="16" viewBox="0 0 14 16" fill="none" xmlns="http://www.w3.org/2000/svg">
<path d="M6.99996 0C5.68285 0.00684235 4.39728 0.40368 3.30549 1.14043C2.21369 1.87719 1.3646 2.92084 0.86537 4.13969C0.366135 5.35853 0.239129 6.69795 0.50038 7.9889C0.761631 9.27986 1.39943 10.4645 2.33329 11.3933L6.79329 15.9C6.82428 15.9312 6.86115 15.956 6.90176 15.973C6.94238 15.9899 6.98595 15.9986 7.02996 15.9986C7.07396 15.9986 7.11753 15.9899 7.15815 15.973C7.19877 15.956 7.23564 15.9312 7.26662 15.9L11.6666 11.4C12.6028 10.4715 13.2426 9.28631 13.5051 7.99422C13.7677 6.70213 13.6412 5.3612 13.1417 4.14098C12.6422 2.92077 11.7921 1.87607 10.6989 1.13898C9.60568 0.401895 8.31844 0.00552821 6.99996 0ZM6.99996 9.33333C6.47254 9.33333 5.95697 9.17694 5.51844 8.88392C5.07991 8.5909 4.73811 8.17443 4.53628 7.68716C4.33444 7.19989 4.28164 6.66371 4.38453 6.14643C4.48742 5.62914 4.7414 5.15399 5.11434 4.78105C5.48728 4.40811 5.96243 4.15413 6.47972 4.05124C6.997 3.94835 7.53318 4.00115 8.02045 4.20299C8.50772 4.40482 8.92419 4.74661 9.21721 5.18515C9.51023 5.62368 9.66662 6.13925 9.66662 6.66667C9.66662 7.37391 9.38567 8.05219 8.88558 8.55228C8.38548 9.05238 7.7072 9.33333 6.99996 9.33333Z" fill="#E46067"/>
</svg>
