<svg width="24" height="24" viewBox="0 0 24 24" fill="none" xmlns="http://www.w3.org/2000/svg">
<g clip-path="url(#clip0_26_280)">
<path d="M12 0C10.0243 0.0102635 8.09598 0.605521 6.45829 1.71065C4.8206 2.81578 3.54697 4.38126 2.79812 6.20953C2.04926 8.0378 1.85875 10.0469 2.25063 11.9834C2.64251 13.9198 3.59921 15.6968 5 17.09L11.69 23.85C11.7365 23.8969 11.7918 23.9341 11.8527 23.9594C11.9136 23.9848 11.979 23.9979 12.045 23.9979C12.111 23.9979 12.1764 23.9848 12.2373 23.9594C12.2982 23.9341 12.3535 23.8969 12.4 23.85L19 17.1C20.4042 15.7073 21.3639 13.9295 21.7578 11.9913C22.1516 10.0532 21.9619 8.0418 21.2127 6.21148C20.4634 4.38115 19.1883 2.8141 17.5484 1.70847C15.9086 0.602843 13.9777 0.00829231 12 0ZM12 14C11.2089 14 10.4355 13.7654 9.77772 13.3259C9.11992 12.8864 8.60723 12.2616 8.30448 11.5307C8.00173 10.7998 7.92251 9.99556 8.07685 9.21964C8.2312 8.44371 8.61216 7.73098 9.17157 7.17157C9.73098 6.61216 10.4437 6.2312 11.2196 6.07686C11.9956 5.92252 12.7998 6.00173 13.5307 6.30448C14.2616 6.60723 14.8863 7.11992 15.3259 7.77772C15.7654 8.43552 16 9.20887 16 10C16 11.0609 15.5786 12.0783 14.8284 12.8284C14.0783 13.5786 13.0609 14 12 14Z" fill="white" fill-opacity="0.5"/>
</g>
<defs>
<clipPath id="clip0_26_280">
<rect width="24" height="24" fill="white"/>
</clipPath>
</defs>
</svg>
