<svg width="40" height="40" viewBox="0 0 40 40" fill="none" xmlns="http://www.w3.org/2000/svg">
<rect width="40" height="40" rx="20" transform="matrix(-1 0 0 1 40 0)" fill="black" fill-opacity="0.15"/>
<path d="M28.5 10.5C28.398 10.5 28.2939 10.5642 28.0699 10.6503L23 12.6001L17 10.5L11.3501 12.3999C11.1499 12.4502 11 12.6499 11 12.8999V28C11 28.2998 11.2002 28.5 11.5 28.5C11.5857 28.5 11.8049 28.3908 11.9259 28.3444L17 26.3999L23 28.5L28.6499 26.6001C28.8501 26.5498 29 26.3501 29 26.1001V11C29 10.7002 28.7998 10.5 28.5 10.5ZM23 26.5L17 24.3999V12.5L23 14.6001V26.5Z" fill="white" fill-opacity="0.5"/>
</svg>
