<svg width="80" height="80" viewBox="0 0 80 80" fill="none" xmlns="http://www.w3.org/2000/svg">
<path fill-rule="evenodd" clip-rule="evenodd" d="M80.6665 40C80.6665 62.0914 62.7579 80 40.6665 80C18.5751 80 0.666504 62.0914 0.666504 40C0.666504 17.9086 18.5751 0 40.6665 0C62.7579 0 80.6665 17.9086 80.6665 40ZM40.6665 74.2857C59.602 74.2857 74.9522 58.9355 74.9522 40C74.9522 21.0645 59.602 5.71429 40.6665 5.71429C21.731 5.71429 6.38079 21.0645 6.38079 40C6.38079 58.9355 21.731 74.2857 40.6665 74.2857Z" fill="#FBF8F8"/>
<path d="M77.6665 40C77.6665 60.4345 61.101 77 40.6665 77C20.232 77 3.6665 60.4345 3.6665 40C3.6665 19.5655 20.232 3 40.6665 3C61.101 3 77.6665 19.5655 77.6665 40Z" fill="url(#paint0_linear_156_2309)"/>
<path d="M36.6666 53.2383L53.4285 42.3812C53.8729 42.0637 54.2063 41.7145 54.4285 41.3335C54.6507 40.9526 54.7618 40.5081 54.7618 40.0002C54.7618 39.4923 54.6507 39.0478 54.4285 38.6669C54.2063 38.2859 53.8729 37.9367 53.4285 37.6193L36.6666 26.7621C35.7142 26.1272 34.746 26.0796 33.7618 26.6193C32.7777 27.1589 32.2856 28.0002 32.2856 29.1431V50.8574C32.2856 52.0002 32.7777 52.8415 33.7618 53.3812C34.746 53.9208 35.7142 53.8732 36.6666 53.2383Z" fill="white"/>
<defs>
<linearGradient id="paint0_linear_156_2309" x1="40.6665" y1="77" x2="40.6665" y2="3" gradientUnits="userSpaceOnUse">
<stop stop-color="#0D9877"/>
<stop offset="1" stop-color="#2EB091"/>
</linearGradient>
</defs>
</svg>
