<svg width="80" height="80" viewBox="0 0 80 80" fill="none" xmlns="http://www.w3.org/2000/svg">
<path fill-rule="evenodd" clip-rule="evenodd" d="M80 40C80 62.0914 62.0914 80 40 80C17.9086 80 0 62.0914 0 40C0 17.9086 17.9086 0 40 0C62.0914 0 80 17.9086 80 40ZM40 74.2857C58.9355 74.2857 74.2857 58.9355 74.2857 40C74.2857 21.0645 58.9355 5.71429 40 5.71429C21.0645 5.71429 5.71429 21.0645 5.71429 40C5.71429 58.9355 21.0645 74.2857 40 74.2857Z" fill="#FBF8F8"/>
<path d="M77 40C77 60.4345 60.4345 77 40 77C19.5655 77 3 60.4345 3 40C3 19.5655 19.5655 3 40 3C60.4345 3 77 19.5655 77 40Z" fill="url(#paint0_linear_156_2300)"/>
<path d="M77 40C77 60.4345 60.4345 77 40 77C19.5655 77 3 60.4345 3 40C3 19.5655 19.5655 3 40 3C60.4345 3 77 19.5655 77 40Z" fill="url(#paint1_linear_156_2300)"/>
<path d="M36.0001 53.2383L52.762 42.3812C53.2064 42.0637 53.5398 41.7145 53.762 41.3335C53.9842 40.9526 54.0953 40.5081 54.0953 40.0002C54.0953 39.4923 53.9842 39.0478 53.762 38.6669C53.5398 38.2859 53.2064 37.9367 52.762 37.6193L36.0001 26.7621C35.0477 26.1272 34.0795 26.0796 33.0953 26.6193C32.1112 27.1589 31.6191 28.0002 31.6191 29.1431V50.8574C31.6191 52.0002 32.1112 52.8415 33.0953 53.3812C34.0795 53.9208 35.0477 53.8732 36.0001 53.2383Z" fill="white"/>
<defs>
<linearGradient id="paint0_linear_156_2300" x1="40" y1="77" x2="40" y2="3" gradientUnits="userSpaceOnUse">
<stop stop-color="#0D9877"/>
<stop offset="1" stop-color="#2EB091"/>
</linearGradient>
<linearGradient id="paint1_linear_156_2300" x1="38.5" y1="3" x2="38.5" y2="77" gradientUnits="userSpaceOnUse">
<stop stop-color="#EE9365"/>
<stop offset="1" stop-color="#DB3668"/>
</linearGradient>
</defs>
</svg>
