<svg width="8" height="8" viewBox="0 0 8 8" fill="none" xmlns="http://www.w3.org/2000/svg">
<path d="M4.76923 3.23077H7.23077C7.69231 3.23077 8 3.53846 8 4C8 4.46154 7.69231 4.76923 7.23077 4.76923H4.76923V7.23077C4.76923 7.69231 4.46154 8 4 8C3.53846 8 3.23077 7.69231 3.23077 7.23077V4.76923H0.769231C0.307692 4.76923 0 4.46154 0 4C0 3.53846 0.307692 3.23077 0.769231 3.23077H3.23077V0.769231C3.23077 0.307692 3.53846 0 4 0C4.46154 0 4.76923 0.307692 4.76923 0.769231V3.23077Z" fill="#767C7D"/>
</svg>
