<svg width="24" height="24" viewBox="0 0 24 24" fill="none" xmlns="http://www.w3.org/2000/svg">
<path fill-rule="evenodd" clip-rule="evenodd" d="M21.75 1.06506H2.25C1.83579 1.06506 1.5 1.40085 1.5 1.81506C1.5 2.22928 1.83579 2.56506 2.25 2.56506H3.75V15.8176C3.75197 16.2804 3.93672 16.7238 4.26401 17.0511C4.5913 17.3783 5.03464 17.5631 5.4975 17.5651H10.307L7.60488 21.7801C7.49775 21.9472 7.46127 22.1501 7.50345 22.3441C7.54563 22.5381 7.66302 22.7075 7.82988 22.8151C7.99282 22.9227 8.19134 22.9626 8.38323 22.9262C8.57511 22.8898 8.74522 22.78 8.85738 22.6201L12.0006 17.717L15.1352 22.5901C15.2476 22.7542 15.4206 22.8669 15.6161 22.9035C15.8116 22.94 16.0136 22.8974 16.1777 22.7851C16.3446 22.6775 16.4619 22.5081 16.5041 22.3141C16.5463 22.1201 16.5098 21.9172 16.4027 21.7501L13.6895 17.5651H18.5025C18.9654 17.5631 19.4087 17.3783 19.736 17.0511C20.0633 16.7238 20.248 16.2804 20.25 15.8176V2.56506H21.75C22.1642 2.56506 22.5 2.22928 22.5 1.81506C22.5 1.40085 22.1642 1.06506 21.75 1.06506ZM15.7382 11.512C16.0724 11.013 16.3034 10.4522 16.4175 9.86256C16.4324 9.75689 16.4247 9.64924 16.3947 9.54681C16.3647 9.44439 16.3132 9.34954 16.2436 9.26861C16.1741 9.18768 16.088 9.12253 15.9912 9.07751C15.8945 9.03249 15.7892 9.00865 15.6825 9.00756C15.5038 9.00496 15.3301 9.06625 15.1926 9.18037C15.0551 9.2945 14.9629 9.45397 14.9325 9.63006C14.8209 10.1587 14.5686 10.6474 14.2023 11.0445C13.8359 11.4416 13.3692 11.7324 12.8512 11.8862C12.3333 12.04 11.7834 12.0511 11.2597 11.9183C10.736 11.7855 10.2579 11.5137 9.87588 11.1317C9.49385 10.7496 9.22207 10.2715 9.08926 9.74782C8.95644 9.22412 8.96753 8.67426 9.12133 8.15634C9.27513 7.63841 9.56595 7.17163 9.96307 6.80529C10.3602 6.43896 10.8489 6.18667 11.3775 6.07506C11.5536 6.0447 11.7131 5.95247 11.8272 5.81497C11.9413 5.67747 12.0026 5.50374 12 5.32506C11.9989 5.21834 11.9751 5.11308 11.9301 5.01632C11.885 4.91955 11.8199 4.83351 11.739 4.76393C11.658 4.69436 11.5632 4.64286 11.4607 4.61288C11.3583 4.58289 11.2507 4.57512 11.145 4.59006C10.5394 4.70719 9.96428 4.94757 9.45545 5.2963C8.94663 5.64502 8.51493 6.09464 8.18718 6.61722C7.85943 7.13979 7.64261 7.72418 7.5502 8.33407C7.45779 8.94397 7.49176 9.56635 7.65 10.1626C7.84766 10.9682 8.27081 11.7009 8.86987 12.2747C9.46892 12.8485 10.2191 13.2397 11.0325 13.4026C11.6191 13.5316 12.2255 13.5419 12.8161 13.433C13.4067 13.324 13.9695 13.0978 14.4714 12.7679C14.9732 12.438 15.404 12.011 15.7382 11.512Z" fill="white" fill-opacity="0.5"/>
</svg>
