<svg width="40" height="40" viewBox="0 0 40 40" fill="none" xmlns="http://www.w3.org/2000/svg">
<g filter="url(#filter0_b_26_313)">
<rect width="40" height="40" rx="20" transform="matrix(-1 0 0 1 40 0)" fill="url(#paint0_linear_26_313)"/>
<path d="M24 21.6667C23.5076 21.6699 23.0221 21.7822 22.5783 21.9955C22.1346 22.2087 21.7435 22.5176 21.4333 22.9L17.1833 20.9417C17.3832 20.3298 17.3832 19.6702 17.1833 19.0583L21.4333 17.1C21.9347 17.705 22.6336 18.1134 23.4068 18.2532C24.18 18.393 24.9777 18.2552 25.6591 17.8641C26.3406 17.473 26.862 16.8537 27.1313 16.1156C27.4006 15.3775 27.4005 14.568 27.1311 13.8299C26.8616 13.0919 26.3401 12.4727 25.6586 12.0817C24.9771 11.6907 24.1793 11.5531 23.4062 11.693C22.633 11.833 21.9342 12.2415 21.4329 12.8466C20.9317 13.4516 20.6603 14.2143 20.6667 15C20.6692 15.1985 20.6887 15.3965 20.725 15.5917L16.325 17.6167C15.8559 17.158 15.2619 16.8479 14.6173 16.7253C13.9728 16.6028 13.3064 16.6731 12.7017 16.9276C12.097 17.1821 11.5808 17.6093 11.2178 18.1559C10.8549 18.7024 10.6613 19.3439 10.6613 20C10.6613 20.6561 10.8549 21.2976 11.2178 21.8441C11.5808 22.3906 12.097 22.8179 12.7017 23.0724C13.3064 23.3269 13.9728 23.3972 14.6173 23.2746C15.2619 23.1521 15.8559 22.842 16.325 22.3833L20.725 24.4083C20.6887 24.6035 20.6692 24.8015 20.6667 25C20.6667 25.6593 20.8622 26.3037 21.2284 26.8519C21.5947 27.4001 22.1153 27.8273 22.7244 28.0796C23.3335 28.3319 24.0037 28.3979 24.6503 28.2693C25.2969 28.1407 25.8909 27.8232 26.357 27.357C26.8232 26.8908 27.1407 26.2969 27.2693 25.6503C27.3979 25.0037 27.3319 24.3335 27.0796 23.7244C26.8273 23.1153 26.4001 22.5947 25.8519 22.2284C25.3037 21.8622 24.6593 21.6667 24 21.6667ZM24 13.3333C24.3296 13.3333 24.6519 13.4311 24.926 13.6142C25.2 13.7973 25.4137 14.0576 25.5398 14.3622C25.6659 14.6667 25.699 15.0018 25.6346 15.3251C25.5703 15.6484 25.4116 15.9454 25.1785 16.1785C24.9454 16.4116 24.6485 16.5703 24.3252 16.6346C24.0019 16.6989 23.6667 16.6659 23.3622 16.5398C23.0577 16.4136 22.7974 16.2 22.6142 15.9259C22.4311 15.6519 22.3333 15.3296 22.3333 15C22.3333 14.558 22.5089 14.134 22.8215 13.8215C23.1341 13.5089 23.558 13.3333 24 13.3333ZM14 21.6667C13.6704 21.6667 13.3481 21.5689 13.0741 21.3858C12.8 21.2026 12.5863 20.9423 12.4602 20.6378C12.3341 20.3333 12.3011 19.9981 12.3654 19.6748C12.4297 19.3515 12.5884 19.0546 12.8215 18.8215C13.0546 18.5884 13.3516 18.4297 13.6749 18.3654C13.9982 18.301 14.3333 18.334 14.6378 18.4602C14.9424 18.5863 15.2027 18.8 15.3858 19.074C15.5689 19.3481 15.6667 19.6704 15.6667 20C15.6667 20.442 15.4911 20.8659 15.1785 21.1785C14.866 21.4911 14.442 21.6667 14 21.6667ZM24 26.6667C23.6704 26.6667 23.3481 26.5689 23.0741 26.3858C22.8 26.2026 22.5863 25.9423 22.4602 25.6378C22.3341 25.3333 22.3011 24.9981 22.3654 24.6748C22.4297 24.3515 22.5884 24.0546 22.8215 23.8215C23.0546 23.5884 23.3516 23.4297 23.6749 23.3654C23.9982 23.301 24.3333 23.334 24.6378 23.4602C24.9424 23.5863 25.2027 23.8 25.3858 24.074C25.5689 24.3481 25.6667 24.6704 25.6667 25C25.6667 25.442 25.4911 25.8659 25.1785 26.1785C24.866 26.4911 24.442 26.6667 24 26.6667Z" fill="white"/>
</g>
<defs>
<filter id="filter0_b_26_313" x="-90" y="-90" width="220" height="220" filterUnits="userSpaceOnUse" color-interpolation-filters="sRGB">
<feFlood flood-opacity="0" result="BackgroundImageFix"/>
<feGaussianBlur in="BackgroundImageFix" stdDeviation="45"/>
<feComposite in2="SourceAlpha" operator="in" result="effect1_backgroundBlur_26_313"/>
<feBlend mode="normal" in="SourceGraphic" in2="effect1_backgroundBlur_26_313" result="shape"/>
</filter>
<linearGradient id="paint0_linear_26_313" x1="40" y1="0" x2="-3.22581" y2="0" gradientUnits="userSpaceOnUse">
<stop stop-color="#EE9365"/>
<stop offset="1" stop-color="#E35B67"/>
</linearGradient>
</defs>
</svg>
