<svg width="20" height="20" viewBox="0 0 20 20" fill="none" xmlns="http://www.w3.org/2000/svg">
<path d="M19.2857 2H3.57143C3.17857 2 2.85714 2.36 2.85714 2.8V5.2H0.714286C0.321429 5.2 0 5.56 0 6V15.6C0 16.912 0.964286 18 2.14286 18H17.8571C19.0286 18 20 16.912 20 15.6V2.8C20 2.36 19.6786 2 19.2857 2ZM2.85714 15.6C2.85714 16.056 2.55 16.4 2.14286 16.4C1.73571 16.4 1.42857 16.056 1.42857 15.6V6.8H2.85714V15.6ZM7.15 6H8.55714C9.52857 5.984 9.52857 7.616 8.55714 7.6H7.15C6.75714 7.608 6.43571 7.256 6.42857 6.808C6.42143 6.36 6.75 5.992 7.15 6ZM15.7 14H7.15714C6.18571 14.016 6.18571 12.384 7.15714 12.4H15.7C16.1 12.392 16.4357 12.76 16.4286 13.208C16.4214 13.656 16.0929 14.008 15.7 14ZM15.7 10.8H7.15714C6.18571 10.816 6.18571 9.184 7.15714 9.2H15.7C16.1 9.192 16.4357 9.56 16.4286 10.008C16.4214 10.456 16.0929 10.808 15.7 10.8ZM15.7 7.6H11.4357C10.4714 7.616 10.4714 5.984 11.4357 6H15.7C16.1071 5.992 16.4357 6.36 16.4286 6.808C16.4214 7.256 16.1 7.608 15.7 7.6Z" fill="white"/>
</svg>
