<svg width="49" height="49" viewBox="0 0 49 49" fill="none" xmlns="http://www.w3.org/2000/svg">
<g clip-path="url(#clip0_38_130)">
<path d="M24.9513 48.9076C38.2363 48.9076 49.0002 38.1438 49.0002 24.8587C49.0002 11.5737 38.2363 0.809814 24.9513 0.809814C11.6662 0.809814 0.902344 11.5737 0.902344 24.8587C0.902344 38.1438 11.6662 48.9076 24.9513 48.9076ZM11.9067 24.3377L35.0939 15.3975C36.1701 15.0087 37.11 15.66 36.7613 17.2873L36.7633 17.2853L32.8153 35.8852C32.5227 37.2038 31.7391 37.5245 30.6428 36.9032L24.6306 32.4722L21.7307 35.2659C21.4101 35.5866 21.1395 35.8571 20.5182 35.8571L20.9451 29.7387L32.0878 19.6722C32.5728 19.2453 31.9796 19.0048 31.3403 19.4297L17.5702 28.0993L11.6342 26.2476C10.3456 25.8387 10.3175 24.9589 11.9067 24.3377Z" fill="#CECFCF"/>
</g>
<defs>
<clipPath id="clip0_38_130">
<rect width="48.0978" height="48.0978" fill="white" transform="translate(0.902344 0.809814)"/>
</clipPath>
</defs>
</svg>
