<svg width="49" height="49" viewBox="0 0 49 49" fill="none" xmlns="http://www.w3.org/2000/svg">
<g clip-path="url(#clip0_38_127)">
<path d="M24.0489 0.809814C10.7675 0.809814 0 11.5768 0 24.8587C0 38.1406 10.7675 48.9076 24.0489 48.9076C37.3303 48.9076 48.0978 38.1406 48.0978 24.8587C48.0978 11.5768 37.3303 0.809814 24.0489 0.809814ZM36.2478 27.4597C37.3687 28.5545 38.5545 29.5849 39.5608 30.7928C40.0066 31.3272 40.4268 31.8798 40.7466 32.5012C41.2032 33.3874 40.7909 34.3592 39.9977 34.4119L35.0708 34.4109C33.7984 34.5162 32.7857 34.003 31.932 33.133C31.2506 32.4397 30.6183 31.6992 29.9619 30.9823C29.6937 30.688 29.4113 30.411 29.0747 30.193C28.4031 29.7561 27.8195 29.8899 27.4347 30.5916C27.0425 31.3056 26.953 32.0968 26.9156 32.8914C26.862 34.0532 26.5116 34.3568 25.346 34.4114C22.8552 34.528 20.4919 34.1501 18.2954 32.8944C16.3577 31.7868 14.8579 30.2235 13.551 28.4536C11.0062 25.0034 9.05715 21.2166 7.30595 17.321C6.91182 16.4437 7.20016 15.9743 8.16802 15.9561C9.77604 15.9251 11.3841 15.929 12.9921 15.9546C13.6465 15.9649 14.0795 16.3394 14.3309 16.9569C15.1999 19.0949 16.2652 21.129 17.6001 23.0155C17.9559 23.5179 18.319 24.0188 18.8361 24.3736C19.4069 24.7652 19.8419 24.6358 20.111 23.9986C20.2833 23.5937 20.3576 23.1607 20.395 22.7267C20.5229 21.2402 20.5381 19.7542 20.3167 18.2736C20.1789 17.3471 19.6579 16.7488 18.7343 16.5736C18.2639 16.4845 18.3328 16.3104 18.5616 16.0417C18.9587 15.5772 19.3307 15.2898 20.0741 15.2898L25.6407 15.2889C26.518 15.4611 26.7148 15.8547 26.8339 16.7384L26.8388 22.9245C26.8285 23.2665 27.0106 24.2801 27.6246 24.504C28.1167 24.6663 28.4414 24.2717 28.7357 23.9602C30.0706 22.5436 31.0217 20.8717 31.8735 19.1411C32.2494 18.3779 32.5737 17.5882 32.8886 16.797C33.1228 16.2119 33.4869 15.9241 34.1472 15.9339L39.5076 15.9403C39.6656 15.9403 39.826 15.9418 39.9825 15.9689C40.8859 16.1234 41.1334 16.5121 40.8539 17.3934C40.414 18.778 39.5593 19.9313 38.7238 21.0877C37.8283 22.3257 36.8732 23.5204 35.9865 24.7638C35.1717 25.9004 35.2361 26.4727 36.2478 27.4597Z" fill="#CECFCF"/>
</g>
<defs>
<clipPath id="clip0_38_127">
<rect width="48.0978" height="48.0978" fill="white" transform="translate(0 0.809814)"/>
</clipPath>
</defs>
</svg>
