<svg width="49" height="50" viewBox="0 0 49 50" fill="none" xmlns="http://www.w3.org/2000/svg">
<path d="M14.4306 35.001L18.6715 33.6531C20.4745 34.8377 22.5853 35.4675 24.7427 35.4646C30.8276 35.4646 35.7789 30.5524 35.7789 24.5145C35.7789 18.4766 30.8281 13.564 24.7432 13.564C18.6583 13.564 13.707 18.4766 13.707 24.5145C13.7056 26.8239 14.4421 29.0734 15.8091 30.9348L14.4306 35.001ZM19.4655 18.9671C19.5735 18.8453 19.7054 18.7469 19.853 18.6783C20.0006 18.6096 20.1608 18.572 20.3236 18.5678C20.5384 18.5678 20.7526 18.5945 20.9404 18.5945C21.1282 18.5945 21.396 18.4881 21.6641 19.127C21.9323 19.766 22.576 21.3373 22.6562 21.4967C22.7072 21.5803 22.7363 21.6753 22.741 21.773C22.7457 21.8708 22.7257 21.9682 22.6829 22.0562C22.6018 22.2483 22.4935 22.4277 22.3614 22.589C22.2003 22.7748 22.0232 23.0044 21.8784 23.148C21.7176 23.3068 21.5497 23.4796 21.7375 23.799C22.2213 24.6205 22.8246 25.3656 23.5274 26.0097C24.7562 27.0976 25.7933 27.4345 26.1149 27.594C26.4365 27.7535 26.6241 27.7272 26.8118 27.5138C26.9995 27.3004 27.6166 26.5827 27.8307 26.2625C28.0447 25.9422 28.2598 25.9967 28.5552 26.1032C28.8505 26.2097 30.432 26.9819 30.754 27.1414C31.0759 27.3009 31.2898 27.381 31.3706 27.5134C31.4514 27.6459 31.4506 28.2862 31.1827 29.0315C30.9147 29.7769 29.6002 30.4962 29.0111 30.549C28.4219 30.6018 28.421 31.0287 25.1491 29.751C21.8771 28.4733 19.8139 25.1436 19.6533 24.9312C19.4926 24.7189 18.3395 23.2006 18.3395 21.6294C18.3395 20.0582 19.1708 19.2868 19.4655 18.9671Z" fill="#CECFCF"/>
<path d="M24.5 49.0955C37.8856 49.0955 48.7368 38.2443 48.7368 24.8587C48.7368 11.4732 37.8856 0.621948 24.5 0.621948C11.1144 0.621948 0.263184 11.4732 0.263184 24.8587C0.263184 38.2443 11.1144 49.0955 24.5 49.0955ZM11.6166 24.5146C11.6166 17.321 17.4933 11.4897 24.7429 11.4897C31.9925 11.4897 37.869 17.321 37.869 24.5146C37.869 31.7082 31.9925 37.5391 24.743 37.5391C22.5252 37.5425 20.3426 36.9851 18.3981 35.9186L11.131 38.2278L13.4997 31.2392C12.2653 29.2136 11.6137 26.8867 11.6166 24.5146Z" fill="#CECFCF"/>
</svg>
