<svg width="213" height="40" viewBox="0 0 213 40" fill="none" xmlns="http://www.w3.org/2000/svg">
<g opacity="0.5" clip-path="url(#clip0_156_2852)">
<path d="M0 17.9427V1.73177C0 1.39324 0.117926 1.10244 0.353777 0.85938C0.589628 0.616324 0.877895 0.494797 1.21856 0.494797H5.07081C5.37654 0.494797 5.69975 0.616324 6.04041 0.85938C6.38109 1.10244 6.66062 1.39324 6.87899 1.73177L14.7931 13.8282V1.70574C14.7931 1.36719 14.911 1.08074 15.1469 0.846355C15.3915 0.611984 15.6841 0.494797 16.0248 0.494797H18.2785C18.6191 0.494797 18.9074 0.611984 19.1432 0.846355C19.3879 1.08074 19.5101 1.37587 19.5101 1.73177V17.9427C19.5101 18.2813 19.3879 18.5721 19.1432 18.8151C18.9074 19.0495 18.6191 19.1667 18.2785 19.1667H13.9284C13.5876 19.1667 13.2383 19.0495 12.8801 18.8151C12.522 18.5721 12.2381 18.2813 12.0285 17.9427L4.78254 6.77084V17.9427C4.78254 18.2813 4.66025 18.5721 4.41566 18.8151C4.17981 19.0495 3.89154 19.1667 3.55088 19.1667H1.24478C0.904093 19.1667 0.611467 19.0495 0.36688 18.8151C0.122293 18.5721 0 18.2813 0 17.9427Z" fill="white"/>
<path d="M23.2705 17.9167V1.70574C23.2705 1.36719 23.3928 1.08074 23.6374 0.846355C23.882 0.611984 24.1746 0.494797 24.5153 0.494797H39.6229C39.9635 0.494797 40.2518 0.616324 40.4876 0.85938C40.7322 1.10244 40.8546 1.39324 40.8546 1.73177V2.95574C40.8546 3.29427 40.7322 3.58507 40.4876 3.82813C40.2518 4.06251 39.9635 4.17969 39.6229 4.17969H28.2103V7.96875H38.0374C38.3781 7.96875 38.6664 8.09028 38.9022 8.33334C39.1468 8.56767 39.2691 8.85417 39.2691 9.19267V10.4167C39.2691 10.7552 39.1468 11.046 38.9022 11.2891C38.6664 11.5234 38.3781 11.6407 38.0374 11.6407H28.2103V15.4818H39.5967C39.9286 15.4818 40.2125 15.599 40.4484 15.8333C40.6842 16.0677 40.8021 16.3542 40.8021 16.6927V17.9427C40.8021 18.2813 40.6798 18.5721 40.4353 18.8151C40.1907 19.0495 39.898 19.1667 39.5574 19.1667H24.5153C24.1746 19.1667 23.882 19.0495 23.6374 18.8151C23.3928 18.5721 23.2705 18.2726 23.2705 17.9167Z" fill="white"/>
<path d="M41.7198 1.58855C41.6761 1.48438 41.6543 1.36719 41.6543 1.23699C41.6543 1.0981 41.7285 0.941847 41.877 0.768234C42.0343 0.585943 42.2657 0.494797 42.5715 0.494797H45.441C45.7817 0.494797 46.0962 0.611984 46.3844 0.846355C46.6726 1.08074 46.8779 1.37587 47.0003 1.73177L50.4594 12.0443L53.6565 1.73177C53.9098 0.907122 54.4295 0.494797 55.2158 0.494797H57.6267C58.4128 0.494797 58.9325 0.907122 59.1859 1.73177L62.383 12.0443L65.8421 1.73177C65.9645 1.37587 66.1697 1.08074 66.458 0.846355C66.7463 0.611984 67.0608 0.494797 67.4014 0.494797H70.2709C70.5679 0.494797 70.7907 0.585943 70.9392 0.768234C71.0963 0.941847 71.175 1.0981 71.175 1.23699C71.175 1.36719 71.1576 1.48438 71.1226 1.58855L65.2788 17.8385C64.9555 18.724 64.3266 19.1667 63.392 19.1667H61.492C60.5224 19.1667 59.8978 18.724 59.6183 17.8385L56.4211 7.8125L53.2241 17.8385C52.9358 18.724 52.3113 19.1667 51.3504 19.1667H49.4373C48.5115 19.1667 47.8869 18.724 47.5637 17.8385L41.7198 1.58855Z" fill="white"/>
<path d="M102.242 18.6068C102.242 18.98 102.019 19.1667 101.573 19.1667H98.4287C98.0966 19.1667 97.7302 19.0495 97.3276 18.8151C96.9352 18.5721 96.6333 18.2813 96.4237 17.9427L94.1964 14.4792C93.279 13.0556 92.1695 12.3438 90.868 12.3438H87.6714V17.9427C87.6714 18.2813 87.5489 18.5721 87.3041 18.8151C87.0684 19.0495 86.78 19.1667 86.4395 19.1667H83.9766C83.6356 19.1667 83.3429 19.0495 83.0984 18.8151C82.8538 18.5721 82.7314 18.2813 82.7314 17.9427V1.73177C82.7314 1.39324 82.8494 1.10244 83.0852 0.85938C83.3211 0.616324 83.6094 0.494797 83.9497 0.494797H94.7599C96.7599 0.494797 98.3985 1.02866 99.6732 2.09636C100.958 3.16407 101.599 4.60504 101.599 6.41927C101.599 8.94534 99.9533 10.5295 96.6601 11.1718C97.1843 11.3628 97.669 11.6927 98.1142 12.1615C98.5595 12.6215 99.0711 13.2943 99.6472 14.1797L102.032 17.9427C102.172 18.1858 102.242 18.4071 102.242 18.6068ZM87.6714 8.65884H93.253C94.1528 8.65884 94.9436 8.48092 95.6245 8.125C96.3146 7.7691 96.6601 7.20052 96.6601 6.41927C96.6601 5.63802 96.3146 5.06945 95.6245 4.71355C94.9436 4.35765 94.1528 4.17969 93.253 4.17969H87.6714V8.65884Z" fill="white"/>
<path d="M104.43 17.9167V1.70574C104.43 1.36719 104.552 1.08074 104.797 0.846355C105.041 0.611984 105.334 0.494797 105.675 0.494797H120.782C121.123 0.494797 121.411 0.616324 121.647 0.85938C121.891 1.10244 122.014 1.39324 122.014 1.73177V2.95574C122.014 3.29427 121.891 3.58507 121.647 3.82813C121.411 4.06251 121.123 4.17969 120.782 4.17969H109.37V7.96875H119.197C119.538 7.96875 119.826 8.09028 120.062 8.33334C120.307 8.56767 120.428 8.85417 120.428 9.19267V10.4167C120.428 10.7552 120.307 11.046 120.062 11.2891C119.826 11.5234 119.538 11.6407 119.197 11.6407H109.37V15.4818H120.756C121.088 15.4818 121.372 15.599 121.608 15.8333C121.844 16.0677 121.962 16.3542 121.962 16.6927V17.9427C121.962 18.2813 121.84 18.5721 121.595 18.8151C121.35 19.0495 121.057 19.1667 120.717 19.1667H105.675C105.334 19.1667 105.041 19.0495 104.797 18.8151C104.552 18.5721 104.43 18.2726 104.43 17.9167Z" fill="white"/>
<path d="M122.878 17.9688L126.167 5.57292C127.059 2.19619 129.958 0.503478 134.867 0.494797H141.93C142.253 0.494797 142.519 0.616324 142.729 0.85938C142.948 1.10244 143.057 1.38456 143.057 1.70574V17.9688C143.057 18.3073 142.935 18.5938 142.69 18.8282C142.446 19.0538 142.153 19.1667 141.812 19.1667H139.349C138.991 19.1667 138.694 19.0538 138.457 18.8282C138.231 18.5938 138.117 18.2986 138.117 17.9427V14.6615H128.801L127.923 17.9427C127.836 18.2986 127.639 18.5938 127.334 18.8282C127.027 19.0538 126.705 19.1667 126.364 19.1667H123.782C123.442 19.1667 123.197 19.0712 123.048 18.8802C122.9 18.6806 122.826 18.5069 122.826 18.3593C122.835 18.2118 122.852 18.0816 122.878 17.9688ZM129.77 10.9766H138.117V4.17969H134.383C133.544 4.17969 132.81 4.41841 132.181 4.89584C131.561 5.36459 131.142 5.99827 130.924 6.79688L129.77 10.9766Z" fill="white"/>
<path d="M146.804 17.9688V1.75782C146.804 1.40191 146.926 1.10244 147.171 0.85938C147.416 0.616324 147.709 0.494797 148.049 0.494797H150.512C150.853 0.494797 151.141 0.616324 151.377 0.85938C151.621 1.10244 151.744 1.40191 151.744 1.75782V15.4818H163.156C163.497 15.4818 163.785 15.6033 164.021 15.8463C164.266 16.0894 164.388 16.3802 164.388 16.7188V17.9427C164.388 18.2813 164.266 18.5721 164.021 18.8151C163.785 19.0495 163.497 19.1667 163.156 19.1667H148.049C147.709 19.1667 147.416 19.0538 147.171 18.8282C146.926 18.5938 146.804 18.3073 146.804 17.9688Z" fill="white"/>
<path d="M166.537 17.9688V1.73177C166.537 1.39324 166.66 1.10244 166.904 0.85938C167.148 0.616324 167.441 0.494797 167.782 0.494797H170.218C170.577 0.494797 170.874 0.616324 171.11 0.85938C171.355 1.10244 171.476 1.39324 171.476 1.73177V17.9427C171.476 18.2813 171.35 18.5721 171.096 18.8151C170.852 19.0495 170.56 19.1667 170.218 19.1667H167.782C167.441 19.1667 167.148 19.0538 166.904 18.8282C166.66 18.5938 166.537 18.3073 166.537 17.9688Z" fill="white"/>
<path d="M173.626 2.95574V1.73177C173.626 1.37587 173.744 1.08074 173.98 0.846355C174.215 0.611984 174.512 0.494797 174.87 0.494797H191.498C191.856 0.494797 192.154 0.611984 192.389 0.846355C192.625 1.08074 192.743 1.37587 192.743 1.73177V2.95574C192.743 3.31164 192.625 3.60677 192.389 3.84115C192.154 4.06685 191.856 4.17969 191.498 4.17969H185.655V17.9688C185.655 18.3073 185.532 18.5938 185.287 18.8282C185.052 19.0538 184.763 19.1667 184.423 19.1667H181.946C181.605 19.1667 181.313 19.0538 181.068 18.8282C180.833 18.5938 180.715 18.3073 180.715 17.9688V4.17969H174.87C174.512 4.17969 174.215 4.06685 173.98 3.84115C173.744 3.60677 173.626 3.31164 173.626 2.95574Z" fill="white"/>
<path d="M193.28 1.1198C193.28 0.70313 193.508 0.494797 193.962 0.494797H196.452C197.439 0.494797 198.199 0.907122 198.731 1.73177L202.977 8.22917L207.209 1.73177C207.751 0.907122 208.511 0.494797 209.488 0.494797H211.992C212.437 0.494797 212.66 0.70313 212.66 1.1198C212.66 1.31077 212.589 1.51476 212.45 1.73177L205.44 12.5V17.9688C205.44 18.3073 205.318 18.5938 205.073 18.8282C204.838 19.0538 204.549 19.1667 204.209 19.1667H201.745C201.404 19.1667 201.112 19.0538 200.867 18.8282C200.623 18.5938 200.5 18.3073 200.5 17.9688V12.5L193.503 1.73177C193.355 1.51476 193.28 1.31077 193.28 1.1198Z" fill="white"/>
<path d="M122.809 31.6284C122.934 31.6284 123.043 31.6718 123.137 31.7587C123.226 31.8536 123.272 31.9648 123.272 32.0923C123.272 32.2225 123.226 32.3323 123.137 32.4218C123.043 32.5141 122.934 32.5602 122.809 32.5602C122.678 32.5602 122.566 32.5141 122.473 32.4218C122.38 32.3351 122.334 32.2252 122.334 32.0923C122.334 31.9621 122.38 31.8508 122.473 31.7587C122.566 31.6718 122.678 31.6284 122.809 31.6284ZM122.449 33.2683H123.152V37.5H122.449V33.2683Z" fill="white"/>
<path d="M124.622 37.5V34.8837C124.622 34.4658 124.613 34.1512 124.594 33.9396C124.583 33.7742 124.548 33.5721 124.487 33.3333L125.159 33.1828C125.211 33.3455 125.248 33.5029 125.27 33.6548C125.281 33.7118 125.294 33.8596 125.311 34.0983H125.396C125.536 33.8216 125.711 33.6046 125.92 33.4472C126.147 33.2655 126.405 33.1747 126.694 33.1747C126.858 33.1747 127.016 33.2045 127.169 33.2642C127.323 33.3212 127.451 33.4025 127.554 33.5083C127.71 33.6602 127.821 33.8853 127.886 34.1838H127.936C128.099 33.8691 128.291 33.6277 128.513 33.4595C128.75 33.2696 129.016 33.1747 129.311 33.1747C129.669 33.1747 129.943 33.2737 130.134 33.4717C130.3 33.6372 130.418 33.8894 130.487 34.2285C130.535 34.4753 130.559 34.8199 130.559 35.2621V37.5H129.856V35.0668C129.856 34.8524 129.843 34.6761 129.819 34.5378C129.78 34.3235 129.713 34.1567 129.614 34.0372C129.491 33.8935 129.319 33.8216 129.098 33.8216C128.847 33.8216 128.615 33.941 128.402 34.1797C128.274 34.3235 128.121 34.5459 127.943 34.847C127.949 34.8931 127.951 34.9609 127.951 35.0504V37.5H127.247V35.0668C127.247 34.7223 127.214 34.4577 127.145 34.2732C127.03 33.9722 126.814 33.8216 126.494 33.8216C126.248 33.8216 126.014 33.9437 125.794 34.1878C125.666 34.3289 125.51 34.5635 125.327 34.8917V37.5H124.622Z" fill="white"/>
<path d="M131.755 37.5V34.8837C131.755 34.4658 131.746 34.1512 131.727 33.9396C131.716 33.7742 131.68 33.5721 131.62 33.3333L132.292 33.1828C132.344 33.3455 132.381 33.5029 132.403 33.6548C132.413 33.7118 132.427 33.8596 132.444 34.0983H132.529C132.668 33.8216 132.843 33.6046 133.053 33.4472C133.28 33.2655 133.538 33.1747 133.827 33.1747C133.991 33.1747 134.149 33.2045 134.302 33.2642C134.455 33.3212 134.584 33.4025 134.687 33.5083C134.843 33.6602 134.953 33.8853 135.019 34.1838H135.068C135.232 33.8691 135.424 33.6277 135.645 33.4595C135.883 33.2696 136.148 33.1747 136.444 33.1747C136.801 33.1747 137.076 33.2737 137.266 33.4717C137.433 33.6372 137.551 33.8894 137.618 34.2285C137.668 34.4753 137.692 34.8199 137.692 35.2621V37.5H136.988V35.0668C136.988 34.8524 136.976 34.6761 136.951 34.5378C136.913 34.3235 136.845 34.1567 136.746 34.0372C136.624 33.8935 136.452 33.8216 136.231 33.8216C135.98 33.8216 135.748 33.941 135.535 34.1797C135.406 34.3235 135.254 34.5459 135.076 34.847C135.082 34.8931 135.084 34.9609 135.084 35.0504V37.5H134.38V35.0668C134.38 34.7223 134.346 34.4577 134.278 34.2732C134.163 33.9722 133.946 33.8216 133.627 33.8216C133.381 33.8216 133.147 33.9437 132.927 34.1878C132.798 34.3289 132.642 34.5635 132.46 34.8917V37.5H131.755Z" fill="white"/>
<path d="M142.075 37.264C141.772 37.3833 141.486 37.4688 141.219 37.5203C140.954 37.5719 140.716 37.5977 140.507 37.5977C140.185 37.5977 139.903 37.5475 139.663 37.4471C139.422 37.344 139.222 37.2002 139.061 37.0157C138.902 36.8313 138.782 36.6116 138.7 36.3566C138.621 36.0989 138.582 35.8154 138.582 35.5062C138.582 35.3163 138.595 35.1264 138.623 34.9365C138.65 34.7467 138.694 34.5662 138.754 34.3953C138.814 34.2217 138.891 34.0603 138.987 33.9112C139.085 33.7619 139.204 33.6331 139.343 33.5246C139.483 33.4161 139.645 33.3306 139.831 33.2683C140.016 33.2058 140.228 33.1747 140.465 33.1747C141.074 33.1747 141.533 33.3645 141.842 33.7443C142.149 34.1213 142.304 34.6626 142.304 35.3678V35.5917H139.307C139.307 35.8195 139.331 36.0216 139.38 36.1979C139.43 36.3715 139.504 36.5193 139.606 36.6414C139.709 36.7608 139.839 36.8517 139.994 36.9141C140.153 36.9764 140.34 37.0077 140.555 37.0077C140.676 37.0077 140.794 36.9995 140.912 36.9833C141.032 36.9643 141.148 36.9412 141.26 36.9141C141.372 36.8843 141.478 36.8517 141.579 36.8164C141.683 36.7812 141.78 36.7472 141.87 36.7147L142.075 37.264ZM141.596 35.0301C141.574 34.5907 141.468 34.2706 141.276 34.0698C141.088 33.8663 140.818 33.7647 140.465 33.7647C140.113 33.7647 139.844 33.8663 139.659 34.0698C139.476 34.2706 139.365 34.5907 139.328 35.0301H141.596Z" fill="white"/>
<path d="M144.166 34.2488C144.251 34.0807 144.341 33.9287 144.436 33.7932C144.534 33.6575 144.642 33.5422 144.76 33.4472C144.866 33.355 144.984 33.2873 145.112 33.2438C145.24 33.1977 145.386 33.1747 145.55 33.1747C145.604 33.1747 145.667 33.1773 145.738 33.1828C145.812 33.1882 145.882 33.1977 145.947 33.2113C145.936 33.3469 145.923 33.4744 145.906 33.5938C145.893 33.7131 145.873 33.8338 145.849 33.9559C145.712 33.9315 145.587 33.9138 145.473 33.903C145.36 33.8922 145.254 33.8948 145.153 33.9112C145.033 33.9328 144.928 33.9735 144.838 34.0332C144.751 34.0902 144.668 34.1675 144.592 34.2652C144.518 34.3601 144.446 34.4753 144.375 34.611C144.304 34.7439 144.227 34.8972 144.142 35.0708V37.5H143.437V34.8917C143.437 34.7208 143.435 34.5703 143.429 34.4401C143.427 34.3099 143.418 34.1865 143.405 34.0698C143.394 33.9505 143.376 33.8338 143.351 33.7199C143.327 33.6033 143.294 33.4744 143.253 33.3333C143.368 33.3035 143.479 33.2763 143.589 33.2519C143.701 33.2275 143.814 33.2045 143.929 33.1828C143.967 33.2913 143.997 33.3876 144.019 33.4717C144.044 33.5558 144.062 33.6385 144.076 33.7199C144.09 33.7986 144.099 33.8799 144.105 33.964C144.113 34.0454 144.121 34.1403 144.129 34.2488H144.166Z" fill="white"/>
<path d="M148.081 33.1747C148.305 33.1747 148.529 33.1977 148.753 33.2438C148.98 33.2899 149.19 33.3537 149.384 33.4351C149.345 33.5218 149.306 33.6073 149.265 33.6914C149.224 33.7755 149.179 33.8583 149.13 33.9396C149.062 33.9125 148.985 33.8853 148.901 33.8583C148.819 33.8311 148.731 33.8081 148.638 33.7891C148.549 33.7701 148.454 33.7552 148.356 33.7443C148.26 33.7307 148.166 33.724 148.073 33.724C147.972 33.724 147.874 33.7348 147.779 33.7565C147.686 33.7755 147.603 33.8081 147.529 33.8542C147.458 33.9002 147.4 33.9613 147.357 34.0372C147.313 34.1105 147.291 34.2027 147.291 34.314C147.291 34.4279 147.316 34.5242 147.364 34.6028C147.414 34.6788 147.481 34.7426 147.566 34.7941C147.65 34.8457 147.748 34.8891 147.86 34.9243C147.975 34.9596 148.097 34.9922 148.225 35.022C148.424 35.0708 148.61 35.1264 148.782 35.1888C148.954 35.2485 149.102 35.3272 149.228 35.4248C149.354 35.5225 149.452 35.6432 149.523 35.7869C149.593 35.9308 149.629 36.1084 149.629 36.32C149.629 36.5424 149.584 36.7337 149.494 36.8937C149.406 37.0537 149.286 37.1867 149.134 37.2925C148.984 37.3956 148.808 37.4715 148.606 37.5203C148.403 37.5719 148.188 37.5977 147.958 37.5977C147.838 37.5977 147.714 37.5895 147.586 37.5732C147.46 37.5597 147.335 37.538 147.209 37.5082C147.086 37.481 146.965 37.4471 146.845 37.4064C146.725 37.3657 146.611 37.321 146.505 37.2722C146.543 37.1853 146.583 37.1013 146.624 37.0198C146.668 36.9358 146.712 36.853 146.759 36.7717C146.849 36.8096 146.944 36.8463 147.046 36.8815C147.146 36.9141 147.25 36.9426 147.357 36.967C147.463 36.9913 147.568 37.0118 147.672 37.028C147.775 37.0416 147.875 37.0483 147.971 37.0483C148.091 37.0483 148.207 37.0347 148.319 37.0077C148.434 36.9805 148.534 36.9385 148.621 36.8815C148.712 36.8218 148.783 36.7459 148.834 36.6537C148.89 36.5614 148.917 36.4502 148.917 36.32C148.917 36.1979 148.891 36.0976 148.839 36.0189C148.79 35.9402 148.723 35.8751 148.638 35.8236C148.554 35.7693 148.454 35.7259 148.34 35.6933C148.227 35.6581 148.109 35.6256 147.983 35.5957C147.792 35.5496 147.61 35.4967 147.438 35.437C147.27 35.3773 147.12 35.3 146.992 35.2051C146.866 35.1074 146.766 34.9881 146.689 34.847C146.616 34.7032 146.579 34.5256 146.579 34.314C146.579 34.1159 146.62 33.945 146.701 33.8013C146.783 33.6575 146.892 33.5395 147.029 33.4472C147.168 33.355 147.328 33.2873 147.508 33.2438C147.691 33.1977 147.882 33.1747 148.081 33.1747Z" fill="white"/>
<path d="M151.144 31.6284C151.269 31.6284 151.378 31.6718 151.471 31.7587C151.561 31.8536 151.606 31.9648 151.606 32.0923C151.606 32.2225 151.561 32.3323 151.471 32.4218C151.378 32.5141 151.269 32.5602 151.144 32.5602C151.013 32.5602 150.901 32.5141 150.808 32.4218C150.715 32.3351 150.669 32.2252 150.669 32.0923C150.669 31.9621 150.715 31.8508 150.808 31.7587C150.901 31.6718 151.013 31.6284 151.144 31.6284ZM150.784 33.2683H151.487V37.5H150.784V33.2683Z" fill="white"/>
<path d="M156.25 33.2682L154.834 37.5H153.892L152.475 33.2682H153.236L154.362 36.9629L155.488 33.2682H156.25Z" fill="white"/>
<path d="M160.328 37.264C160.025 37.3833 159.74 37.4688 159.472 37.5203C159.207 37.5719 158.97 37.5977 158.76 37.5977C158.437 37.5977 158.157 37.5475 157.916 37.4471C157.676 37.344 157.476 37.2002 157.315 37.0157C157.156 36.8313 157.036 36.6116 156.954 36.3566C156.875 36.0989 156.835 35.8154 156.835 35.5062C156.835 35.3163 156.849 35.1264 156.876 34.9365C156.904 34.7467 156.947 34.5662 157.007 34.3953C157.067 34.2217 157.145 34.0603 157.241 33.9112C157.339 33.7619 157.458 33.6331 157.597 33.5246C157.736 33.4161 157.898 33.3306 158.084 33.2683C158.27 33.2058 158.481 33.1747 158.719 33.1747C159.327 33.1747 159.786 33.3645 160.095 33.7443C160.403 34.1213 160.557 34.6626 160.557 35.3678V35.5917H157.56C157.56 35.8195 157.585 36.0216 157.634 36.1979C157.683 36.3715 157.758 36.5193 157.859 36.6414C157.963 36.7608 158.092 36.8517 158.248 36.9141C158.406 36.9764 158.593 37.0077 158.809 37.0077C158.929 37.0077 159.048 36.9995 159.165 36.9833C159.285 36.9643 159.401 36.9412 159.513 36.9141C159.625 36.8843 159.731 36.8517 159.833 36.8164C159.936 36.7812 160.033 36.7472 160.123 36.7147L160.328 37.264ZM159.849 35.0301C159.827 34.5907 159.721 34.2706 159.529 34.0698C159.341 33.8663 159.071 33.7647 158.719 33.7647C158.367 33.7647 158.098 33.8663 157.913 34.0698C157.729 34.2706 157.619 34.5907 157.58 35.0301H159.849Z" fill="white"/>
<path d="M164.407 32.2998H165.111V33.2683H166.544V33.8583H165.111V36.2874C165.111 36.4502 165.114 36.575 165.123 36.6618C165.134 36.7459 165.159 36.8123 165.197 36.8612C165.268 36.9588 165.411 37.0077 165.627 37.0077C165.747 37.0077 165.862 36.9954 165.975 36.971C166.09 36.9466 166.195 36.9195 166.29 36.8897C166.366 37.0551 166.436 37.2368 166.499 37.4349C166.177 37.5434 165.852 37.5977 165.524 37.5977C165.287 37.5977 165.096 37.5705 164.951 37.5163C164.809 37.4648 164.697 37.3793 164.615 37.2599C164.531 37.1352 164.475 36.9859 164.448 36.8123C164.42 36.6388 164.407 36.3987 164.407 36.0921V33.8583H163.792V33.2683H164.407V32.2998Z" fill="white"/>
<path d="M170.745 37.264C170.442 37.3833 170.157 37.4688 169.889 37.5203C169.624 37.5719 169.387 37.5977 169.176 37.5977C168.854 37.5977 168.574 37.5475 168.333 37.4471C168.093 37.344 167.893 37.2002 167.732 37.0157C167.573 36.8313 167.453 36.6116 167.371 36.3566C167.291 36.0989 167.252 35.8154 167.252 35.5062C167.252 35.3163 167.266 35.1264 167.293 34.9365C167.321 34.7467 167.364 34.5662 167.424 34.3953C167.484 34.2217 167.562 34.0603 167.658 33.9112C167.756 33.7619 167.874 33.6331 168.013 33.5246C168.153 33.4161 168.315 33.3306 168.501 33.2683C168.687 33.2058 168.898 33.1747 169.135 33.1747C169.744 33.1747 170.203 33.3645 170.512 33.7443C170.82 34.1213 170.974 34.6626 170.974 35.3678V35.5917H167.977C167.977 35.8195 168.002 36.0216 168.05 36.1979C168.1 36.3715 168.175 36.5193 168.276 36.6414C168.38 36.7608 168.509 36.8517 168.665 36.9141C168.823 36.9764 169.01 37.0077 169.226 37.0077C169.346 37.0077 169.465 36.9995 169.582 36.9833C169.702 36.9643 169.818 36.9412 169.93 36.9141C170.042 36.8843 170.148 36.8517 170.25 36.8164C170.353 36.7812 170.45 36.7472 170.54 36.7147L170.745 37.264ZM170.266 35.0301C170.244 34.5907 170.138 34.2706 169.946 34.0698C169.758 33.8663 169.488 33.7647 169.135 33.7647C168.783 33.7647 168.515 33.8663 168.329 34.0698C168.146 34.2706 168.036 34.5907 167.997 35.0301H170.266Z" fill="white"/>
<path d="M175.048 37.3494C174.835 37.4227 174.607 37.4823 174.365 37.5285C174.124 37.5746 173.896 37.5977 173.681 37.5977C173.353 37.5977 173.069 37.5502 172.829 37.4553C172.589 37.3603 172.39 37.2219 172.231 37.0402C172.075 36.8584 171.96 36.636 171.883 36.3729C171.807 36.1071 171.769 35.8046 171.769 35.4655C171.769 35.0966 171.815 34.7697 171.908 34.4848C172.003 34.2 172.14 33.9613 172.317 33.7687C172.497 33.5734 172.716 33.4256 172.973 33.3252C173.232 33.2248 173.525 33.1747 173.852 33.1747C174.019 33.1747 174.189 33.1923 174.361 33.2275C174.533 33.2601 174.707 33.3022 174.885 33.3537L174.709 33.9233C174.567 33.8773 174.434 33.8406 174.311 33.8135C174.191 33.7863 174.065 33.7728 173.93 33.7728C173.467 33.7728 173.109 33.9071 172.858 34.1756C172.606 34.4415 172.481 34.8443 172.481 35.3841C172.481 35.6364 172.499 35.8629 172.534 36.0637C172.573 36.2617 172.638 36.4312 172.73 36.5722C172.826 36.7106 172.954 36.8164 173.115 36.8897C173.28 36.9629 173.487 36.9995 173.738 36.9995C173.902 36.9995 174.078 36.9792 174.267 36.9385C174.457 36.8951 174.659 36.8422 174.872 36.7798L175.048 37.3494Z" fill="white"/>
<path d="M176.088 31.6407H176.792V34.1919C176.975 33.8827 177.183 33.6413 177.415 33.4676C177.68 33.2723 177.943 33.1747 178.205 33.1747C178.599 33.1747 178.904 33.2723 179.123 33.4676C179.311 33.6358 179.441 33.8894 179.511 34.2285C179.566 34.4863 179.593 34.8334 179.593 35.2702V37.5H178.889V35.0748C178.889 34.9094 178.885 34.7738 178.877 34.668C178.869 34.5595 178.848 34.4469 178.815 34.3303C178.786 34.2109 178.74 34.1187 178.68 34.0536C178.623 33.9858 178.541 33.9301 178.434 33.8868C178.331 33.8433 178.204 33.8216 178.054 33.8216C177.794 33.8216 177.545 33.9437 177.305 34.1878C177.151 34.3424 176.981 34.5784 176.792 34.8958V37.5H176.088V31.6407Z" fill="white"/>
<path d="M180.674 33.3415L181.354 33.1909C181.406 33.3537 181.442 33.511 181.465 33.6629C181.476 33.7362 181.489 33.8813 181.505 34.0983H181.591C181.741 33.8243 181.927 33.6059 182.148 33.4432C182.391 33.2642 182.648 33.1747 182.918 33.1747C183.325 33.1747 183.634 33.2723 183.847 33.4676C184.03 33.6331 184.157 33.8867 184.228 34.2285C184.275 34.4618 184.297 34.809 184.297 35.2702V37.5H183.594V35.0748C183.594 34.6707 183.554 34.3818 183.475 34.2082C183.357 33.9505 183.121 33.8216 182.766 33.8216C182.515 33.8216 182.27 33.941 182.029 34.1797C181.868 34.3397 181.696 34.5744 181.513 34.8837V37.5H180.809V34.8958C180.809 34.5296 180.8 34.2136 180.78 33.9478C180.769 33.7823 180.734 33.5802 180.674 33.3415Z" fill="white"/>
<path d="M187.095 33.1747C187.229 33.1747 187.368 33.1855 187.513 33.2072C187.658 33.2262 187.799 33.2642 187.939 33.3212C188.078 33.3808 188.209 33.4622 188.332 33.5653C188.458 33.6657 188.568 33.7972 188.664 33.96C188.759 34.1254 188.834 34.3248 188.889 34.5581C188.943 34.7887 188.971 35.064 188.971 35.3841C188.971 35.7042 188.943 35.9809 188.889 36.2142C188.834 36.4448 188.759 36.6414 188.664 36.8042C188.568 36.9697 188.458 37.1039 188.332 37.207C188.209 37.3101 188.078 37.3902 187.939 37.4471C187.799 37.5068 187.658 37.5461 187.513 37.5651C187.368 37.5868 187.229 37.5977 187.095 37.5977C186.964 37.5977 186.827 37.5868 186.682 37.5651C186.54 37.5461 186.399 37.5068 186.26 37.4471C186.12 37.3902 185.99 37.3101 185.867 37.207C185.744 37.1039 185.635 36.9697 185.539 36.8042C185.444 36.6414 185.368 36.4448 185.314 36.2142C185.259 35.9809 185.232 35.7042 185.232 35.3841C185.232 35.064 185.259 34.7887 185.314 34.5581C185.368 34.3248 185.444 34.1254 185.539 33.96C185.635 33.7972 185.744 33.6657 185.867 33.5653C185.99 33.4622 186.12 33.3808 186.26 33.3212C186.399 33.2642 186.54 33.2262 186.682 33.2072C186.824 33.1855 186.962 33.1747 187.095 33.1747ZM187.095 33.7483C186.94 33.7483 186.792 33.7727 186.653 33.8216C186.516 33.8704 186.396 33.9559 186.292 34.078C186.186 34.2028 186.102 34.3696 186.039 34.5784C185.976 34.7873 185.944 35.0559 185.944 35.3841C185.944 35.7097 185.976 35.9782 186.039 36.1897C186.102 36.3987 186.186 36.5642 186.292 36.6862C186.396 36.811 186.516 36.8977 186.653 36.9466C186.792 36.9927 186.94 37.0157 187.095 37.0157C187.253 37.0157 187.403 36.9927 187.542 36.9466C187.684 36.8977 187.808 36.811 187.914 36.6862C188.021 36.5642 188.104 36.3987 188.164 36.1897C188.227 35.9782 188.258 35.7097 188.258 35.3841C188.258 35.0559 188.227 34.7873 188.164 34.5784C188.104 34.3696 188.021 34.2028 187.914 34.078C187.808 33.9559 187.684 33.8704 187.542 33.8216C187.403 33.7727 187.253 33.7483 187.095 33.7483Z" fill="white"/>
<path d="M190.661 35.8561C190.661 36.0786 190.665 36.2657 190.67 36.4177C190.676 36.5668 190.682 36.6984 190.691 36.8123C190.698 36.9262 190.711 37.0293 190.727 37.1216C190.746 37.2138 190.77 37.3155 190.796 37.4267C190.682 37.4566 190.568 37.4837 190.453 37.5082C190.339 37.5352 190.224 37.5583 190.109 37.5773C190.054 37.401 190.015 37.2396 189.991 37.0931C189.969 36.9466 189.957 36.8028 189.957 36.6617V31.6487H190.661V35.8561Z" fill="white"/>
<path d="M193.606 33.1747C193.74 33.1747 193.879 33.1855 194.023 33.2072C194.168 33.2262 194.31 33.2642 194.449 33.3212C194.588 33.3808 194.719 33.4622 194.842 33.5653C194.967 33.6657 195.078 33.7972 195.174 33.96C195.269 34.1254 195.345 34.3248 195.399 34.5581C195.454 34.7887 195.481 35.064 195.481 35.3841C195.481 35.7042 195.454 35.9809 195.399 36.2142C195.345 36.4448 195.269 36.6414 195.174 36.8042C195.078 36.9697 194.967 37.1039 194.842 37.207C194.719 37.3101 194.588 37.3902 194.449 37.4471C194.31 37.5068 194.168 37.5461 194.023 37.5651C193.879 37.5868 193.74 37.5977 193.606 37.5977C193.475 37.5977 193.336 37.5868 193.192 37.5651C193.05 37.5461 192.91 37.5068 192.77 37.4471C192.631 37.3902 192.5 37.3101 192.377 37.207C192.255 37.1039 192.146 36.9697 192.05 36.8042C191.954 36.6414 191.879 36.4448 191.824 36.2142C191.77 35.9809 191.742 35.7042 191.742 35.3841C191.742 35.064 191.77 34.7887 191.824 34.5581C191.879 34.3248 191.954 34.1254 192.05 33.96C192.146 33.7972 192.255 33.6657 192.377 33.5653C192.5 33.4622 192.631 33.3808 192.77 33.3212C192.91 33.2642 193.05 33.2262 193.192 33.2072C193.334 33.1855 193.472 33.1747 193.606 33.1747ZM193.606 33.7483C193.45 33.7483 193.303 33.7727 193.164 33.8216C193.027 33.8704 192.907 33.9559 192.803 34.078C192.696 34.2028 192.612 34.3696 192.549 34.5784C192.486 34.7873 192.455 35.0559 192.455 35.3841C192.455 35.7097 192.486 35.9782 192.549 36.1897C192.612 36.3987 192.696 36.5642 192.803 36.6862C192.907 36.811 193.027 36.8977 193.164 36.9466C193.303 36.9927 193.45 37.0157 193.606 37.0157C193.764 37.0157 193.912 36.9927 194.052 36.9466C194.194 36.8977 194.318 36.811 194.425 36.6862C194.531 36.5642 194.614 36.3987 194.674 36.1897C194.737 35.9782 194.769 35.7097 194.769 35.3841C194.769 35.0559 194.737 34.7873 194.674 34.5784C194.614 34.3696 194.531 34.2028 194.425 34.078C194.318 33.9559 194.194 33.8704 194.052 33.8216C193.912 33.7727 193.764 33.7483 193.606 33.7483Z" fill="white"/>
<path d="M199.014 33.2683C199.131 33.2683 199.234 33.2668 199.321 33.2642C199.411 33.2614 199.497 33.256 199.579 33.2479C199.661 33.237 199.743 33.2221 199.825 33.2032C199.91 33.1842 200.008 33.157 200.12 33.1217C200.155 33.2248 200.19 33.3225 200.222 33.4147C200.258 33.5069 200.293 33.6019 200.329 33.6996C200.241 33.7321 200.16 33.7578 200.087 33.7768C200.013 33.7958 199.94 33.8121 199.866 33.8257C199.795 33.8365 199.722 33.8447 199.649 33.8501C199.577 33.8528 199.501 33.8555 199.42 33.8583C199.496 33.9803 199.555 34.1173 199.596 34.2692C199.636 34.4211 199.657 34.5866 199.657 34.7657C199.657 35.026 199.618 35.2539 199.538 35.4492C199.459 35.6418 199.346 35.8059 199.198 35.9416C199.051 36.0772 198.874 36.1802 198.666 36.2508C198.461 36.3187 198.231 36.3525 197.974 36.3525C197.843 36.3525 197.719 36.3457 197.602 36.3322C197.484 36.3159 197.372 36.2887 197.265 36.2508C197.241 36.3159 197.219 36.3824 197.2 36.4502C197.184 36.518 197.176 36.5831 197.176 36.6455C197.178 36.7052 197.191 36.7608 197.213 36.8123C197.234 36.8612 197.272 36.9005 197.328 36.9303C197.354 36.9466 197.383 36.9602 197.413 36.971C197.443 36.9792 197.478 36.9873 197.52 36.9954C197.563 37.0008 197.615 37.0063 197.676 37.0117C197.735 37.0144 197.807 37.0157 197.892 37.0157C197.974 37.0185 198.07 37.0198 198.179 37.0198C198.291 37.0198 198.42 37.0198 198.568 37.0198C198.994 37.0198 199.316 37.1093 199.534 37.2884C199.753 37.4648 199.862 37.7401 199.862 38.1144C199.862 38.2663 199.837 38.4006 199.788 38.5172C199.739 38.6366 199.671 38.7397 199.583 38.8265C199.499 38.9133 199.398 38.9852 199.281 39.0422C199.163 39.1018 199.036 39.1493 198.9 39.1846C198.763 39.2226 198.62 39.2483 198.47 39.2619C198.322 39.2782 198.174 39.2863 198.024 39.2863C197.873 39.2863 197.722 39.2782 197.569 39.2619C197.419 39.2456 197.271 39.2252 197.126 39.2008C196.982 39.1764 196.845 39.1479 196.717 39.1154C196.591 39.0856 196.48 39.0557 196.382 39.0259C196.419 38.9337 196.462 38.8414 196.508 38.7492C196.558 38.6569 196.609 38.5702 196.664 38.4887C196.836 38.5376 197.041 38.5851 197.278 38.6312C197.515 38.6773 197.779 38.7003 198.068 38.7003C198.2 38.7003 198.328 38.6922 198.453 38.6759C198.581 38.6597 198.696 38.6285 198.797 38.5823C198.901 38.5389 198.984 38.4792 199.047 38.4033C199.109 38.3301 199.141 38.2337 199.141 38.1144C199.141 37.9897 199.118 37.8933 199.072 37.8255C199.028 37.7577 198.968 37.7075 198.891 37.675C198.815 37.6424 198.725 37.6234 198.621 37.618C198.517 37.6126 198.408 37.6098 198.294 37.6098H197.757C197.596 37.6098 197.445 37.5977 197.302 37.5732C197.161 37.5488 197.037 37.5082 196.93 37.4512C196.824 37.3915 196.739 37.3142 196.676 37.2192C196.616 37.1243 196.586 37.0077 196.586 36.8693C196.586 36.7364 196.611 36.5994 196.66 36.4583C196.709 36.3146 196.773 36.1694 196.852 36.0229C196.672 35.8927 196.533 35.7205 196.434 35.5062C196.339 35.2919 196.291 35.045 196.291 34.7657C196.291 34.5107 196.33 34.2855 196.41 34.0902C196.491 33.8922 196.606 33.724 196.754 33.5856C196.902 33.4472 197.078 33.3442 197.282 33.2763C197.487 33.2086 197.717 33.1747 197.974 33.1747C198.214 33.1747 198.435 33.2058 198.637 33.2683H199.014ZM197.974 33.7362C197.802 33.7362 197.655 33.7619 197.532 33.8135C197.409 33.865 197.308 33.9369 197.229 34.0292C197.152 34.1187 197.095 34.2272 197.057 34.3547C197.021 34.4794 197.004 34.6164 197.004 34.7657C197.004 34.9175 197.021 35.0559 197.057 35.1807C197.095 35.3054 197.154 35.4139 197.233 35.5062C197.312 35.5957 197.411 35.6662 197.532 35.7178C197.655 35.7666 197.802 35.791 197.974 35.791C198.146 35.791 198.294 35.7666 198.416 35.7178C198.539 35.6662 198.639 35.5957 198.715 35.5062C198.794 35.4139 198.852 35.3054 198.887 35.1807C198.925 35.0532 198.944 34.9148 198.944 34.7657C198.944 34.6164 198.925 34.4794 198.887 34.3547C198.852 34.2272 198.794 34.1187 198.715 34.0292C198.639 33.9369 198.539 33.865 198.416 33.8135C198.294 33.7619 198.146 33.7362 197.974 33.7362Z" fill="white"/>
<path d="M201.573 31.6284C201.699 31.6284 201.808 31.6718 201.901 31.7587C201.991 31.8536 202.036 31.9648 202.036 32.0923C202.036 32.2225 201.991 32.3323 201.901 32.4218C201.808 32.5141 201.699 32.5602 201.573 32.5602C201.442 32.5602 201.33 32.5141 201.238 32.4218C201.145 32.3351 201.099 32.2252 201.099 32.0923C201.099 31.9621 201.145 31.8508 201.238 31.7587C201.33 31.6718 201.442 31.6284 201.573 31.6284ZM201.213 33.2683H201.917V37.5H201.213V33.2683Z" fill="white"/>
<path d="M206.573 37.264C206.27 37.3833 205.984 37.4688 205.717 37.5203C205.452 37.5719 205.214 37.5977 205.005 37.5977C204.683 37.5977 204.401 37.5475 204.161 37.4471C203.921 37.344 203.72 37.2002 203.559 37.0157C203.4 36.8313 203.28 36.6116 203.198 36.3566C203.119 36.0989 203.08 35.8154 203.08 35.5062C203.08 35.3163 203.093 35.1264 203.121 34.9365C203.148 34.7467 203.192 34.5662 203.252 34.3953C203.312 34.2217 203.39 34.0603 203.485 33.9112C203.583 33.7619 203.702 33.6331 203.842 33.5246C203.981 33.4161 204.143 33.3306 204.329 33.2683C204.515 33.2058 204.726 33.1747 204.964 33.1747C205.572 33.1747 206.031 33.3645 206.34 33.7443C206.647 34.1213 206.802 34.6626 206.802 35.3678V35.5917H203.805C203.805 35.8195 203.829 36.0216 203.878 36.1979C203.928 36.3715 204.003 36.5193 204.104 36.6414C204.207 36.7608 204.337 36.8517 204.492 36.9141C204.651 36.9764 204.838 37.0077 205.053 37.0077C205.174 37.0077 205.292 36.9995 205.41 36.9833C205.53 36.9643 205.646 36.9412 205.758 36.9141C205.87 36.8843 205.977 36.8517 206.077 36.8164C206.181 36.7812 206.278 36.7472 206.368 36.7147L206.573 37.264ZM206.094 35.0301C206.072 34.5907 205.966 34.2706 205.774 34.0698C205.586 33.8663 205.316 33.7647 204.964 33.7647C204.611 33.7647 204.342 33.8663 204.157 34.0698C203.974 34.2706 203.863 34.5907 203.826 35.0301H206.094Z" fill="white"/>
<path d="M209.165 33.1747C209.389 33.1747 209.613 33.1977 209.837 33.2438C210.064 33.2899 210.273 33.3537 210.467 33.4351C210.429 33.5218 210.39 33.6073 210.349 33.6914C210.308 33.7755 210.262 33.8583 210.214 33.9396C210.145 33.9125 210.069 33.8853 209.984 33.8583C209.903 33.8311 209.814 33.8081 209.722 33.7891C209.632 33.7701 209.538 33.7552 209.44 33.7443C209.344 33.7307 209.25 33.724 209.157 33.724C209.056 33.724 208.957 33.7348 208.862 33.7565C208.77 33.7755 208.686 33.8081 208.613 33.8542C208.542 33.9002 208.484 33.9613 208.44 34.0372C208.396 34.1105 208.375 34.2027 208.375 34.314C208.375 34.4279 208.4 34.5242 208.448 34.6028C208.498 34.6788 208.565 34.7426 208.65 34.7941C208.734 34.8457 208.832 34.8891 208.944 34.9243C209.059 34.9596 209.181 34.9922 209.309 35.022C209.508 35.0708 209.694 35.1264 209.866 35.1888C210.038 35.2485 210.186 35.3272 210.312 35.4248C210.438 35.5225 210.536 35.6432 210.607 35.7869C210.677 35.9308 210.713 36.1084 210.713 36.32C210.713 36.5424 210.668 36.7337 210.578 36.8937C210.49 37.0537 210.37 37.1867 210.218 37.2925C210.068 37.3956 209.892 37.4715 209.69 37.5203C209.487 37.5719 209.272 37.5977 209.042 37.5977C208.922 37.5977 208.798 37.5895 208.67 37.5732C208.544 37.5597 208.418 37.538 208.293 37.5082C208.17 37.481 208.048 37.4471 207.928 37.4064C207.809 37.3657 207.695 37.321 207.589 37.2722C207.627 37.1853 207.667 37.1013 207.707 37.0198C207.752 36.9358 207.796 36.853 207.843 36.7717C207.933 36.8096 208.028 36.8463 208.129 36.8815C208.23 36.9141 208.334 36.9426 208.44 36.967C208.547 36.9913 208.652 37.0118 208.755 37.028C208.859 37.0416 208.959 37.0483 209.055 37.0483C209.175 37.0483 209.29 37.0347 209.403 37.0077C209.518 36.9805 209.618 36.9385 209.705 36.8815C209.796 36.8218 209.866 36.7459 209.918 36.6537C209.973 36.5614 210.001 36.4502 210.001 36.32C210.001 36.1979 209.975 36.0976 209.923 36.0189C209.873 35.9402 209.807 35.8751 209.722 35.8236C209.638 35.7693 209.538 35.7259 209.423 35.6933C209.311 35.6581 209.192 35.6256 209.067 35.5957C208.876 35.5496 208.694 35.4967 208.522 35.437C208.353 35.3773 208.204 35.3 208.076 35.2051C207.95 35.1074 207.85 34.9881 207.773 34.847C207.7 34.7032 207.663 34.5256 207.663 34.314C207.663 34.1159 207.704 33.945 207.785 33.8013C207.867 33.6575 207.976 33.5395 208.113 33.4472C208.252 33.355 208.412 33.2873 208.592 33.2438C208.775 33.1977 208.966 33.1747 209.165 33.1747Z" fill="white"/>
<path d="M59.3423 39.1667C61.658 39.1667 63.5352 37.3012 63.5352 35C63.5352 32.6988 61.658 30.8333 59.3423 30.8333C57.0266 30.8333 55.1494 32.6988 55.1494 35C55.1494 37.3012 57.0266 39.1667 59.3423 39.1667Z" fill="#ABBAFA"/>
<path d="M83.6617 39.1667C85.9773 39.1667 87.8546 37.3012 87.8546 35C87.8546 32.6988 85.9773 30.8333 83.6617 30.8333C81.346 30.8333 79.4688 32.6988 79.4688 35C79.4688 37.3012 81.346 39.1667 83.6617 39.1667Z" fill="#C8FDAA"/>
<path d="M71.9214 39.1667C74.2371 39.1667 76.1143 37.3012 76.1143 35C76.1143 32.6988 74.2371 30.8333 71.9214 30.8333C69.6057 30.8333 67.7285 32.6988 67.7285 35C67.7285 37.3012 69.6057 39.1667 71.9214 39.1667Z" fill="#F1ACAA"/>
<path d="M96.2408 39.1667C98.5564 39.1667 100.434 37.3012 100.434 35C100.434 32.6988 98.5564 30.8333 96.2408 30.8333C93.9251 30.8333 92.0479 32.6988 92.0479 35C92.0479 37.3012 93.9251 39.1667 96.2408 39.1667Z" fill="#FBE9B7"/>
<path d="M108.82 39.1667C111.136 39.1667 113.013 37.3012 113.013 35C113.013 32.6988 111.136 30.8333 108.82 30.8333C106.504 30.8333 104.627 32.6988 104.627 35C104.627 37.3012 106.504 39.1667 108.82 39.1667Z" fill="#E2B2FB"/>
</g>
<defs>
<clipPath id="clip0_156_2852">
<rect width="213" height="40" fill="white"/>
</clipPath>
</defs>
</svg>
