<svg width="52" height="52" viewBox="0 0 52 52" fill="none" xmlns="http://www.w3.org/2000/svg">
<rect width="52" height="52" rx="26" fill="black" fill-opacity="0.35"/>
<path d="M33 16.9H32V15.9C32 15.3 31.6 14.9 31 14.9C30.4 14.9 30 15.3 30 15.9V16.9H22V15.9C22 15.3 21.6 14.9 21 14.9C20.4 14.9 20 15.3 20 15.9V16.9H19C17.3 16.9 16 18.2 16 19.9V33.9C16 35.6 17.3 36.9 19 36.9H33C34.7 36.9 36 35.6 36 33.9V19.9C36 18.3 34.7 16.9 33 16.9ZM21 32.9C20.4 32.9 20 32.5 20 31.9C20 31.3 20.4 30.9 21 30.9C21.6 30.9 22 31.3 22 31.9C22 32.5 21.6 32.9 21 32.9ZM21 28.9C20.4 28.9 20 28.5 20 27.9C20 27.3 20.4 26.9 21 26.9C21.6 26.9 22 27.3 22 27.9C22 28.5 21.6 28.9 21 28.9ZM26 32.9C25.4 32.9 25 32.5 25 31.9C25 31.3 25.4 30.9 26 30.9C26.6 30.9 27 31.3 27 31.9C27 32.5 26.6 32.9 26 32.9ZM26 28.9C25.4 28.9 25 28.5 25 27.9C25 27.3 25.4 26.9 26 26.9C26.6 26.9 27 27.3 27 27.9C27 28.5 26.6 28.9 26 28.9ZM31 32.9C30.4 32.9 30 32.5 30 31.9C30 31.3 30.4 30.9 31 30.9C31.6 30.9 32 31.3 32 31.9C32 32.5 31.6 32.9 31 32.9ZM31 28.9C30.4 28.9 30 28.5 30 27.9C30 27.3 30.4 26.9 31 26.9C31.6 26.9 32 27.3 32 27.9C32 28.5 31.6 28.9 31 28.9ZM34 22.9H18V19.9C18 19.3 18.4 18.9 19 18.9H20V19.9C20 20.5 20.4 20.9 21 20.9C21.6 20.9 22 20.5 22 19.9V18.9H30V19.9C30 20.5 30.4 20.9 31 20.9C31.6 20.9 32 20.5 32 19.9V18.9H33C33.6 18.9 34 19.3 34 19.9V22.9Z" fill="white" fill-opacity="0.5"/>
</svg>
